<?xml version="1.0" encoding="utf-8"?>
<!-- Generator: Adobe Illustrator 23.0.5, SVG Export Plug-In . SVG Version: 6.00 Build 0)  -->
<svg version="1.1" id="Layer_1" xmlns="http://www.w3.org/2000/svg" xmlns:xlink="http://www.w3.org/1999/xlink" x="0px" y="0px"
	 viewBox="0 0 845.25 399.24" style="enable-background:new 0 0 845.25 399.24;" xml:space="preserve">
<style type="text/css">
	.st0{fill:url(#SVGID_1_);}
	.st1{fill:url(#SVGID_2_);}
	.st2{fill:url(#SVGID_3_);}
	.st3{fill:url(#SVGID_4_);}
	.st4{fill:url(#SVGID_5_);}
	.st5{fill:url(#SVGID_6_);}
	.st6{fill:url(#SVGID_7_);}
	.st7{fill:url(#SVGID_8_);}
	.st8{fill:url(#SVGID_9_);}
	.st9{fill:url(#SVGID_10_);}
	.st10{fill:url(#SVGID_11_);}
	.st11{fill:url(#SVGID_12_);}
	.st12{fill:url(#SVGID_13_);}
	.st13{fill:url(#SVGID_14_);}
	.st14{fill:url(#SVGID_15_);}
	.st15{fill:url(#SVGID_16_);}
	.st16{fill:url(#SVGID_17_);}
	.st17{fill:url(#SVGID_18_);}
	.st18{fill:url(#SVGID_19_);}
	.st19{fill:url(#SVGID_20_);}
	.st20{fill:url(#SVGID_21_);}
	.st21{fill:url(#SVGID_22_);}
	.st22{fill:url(#SVGID_23_);}
	.st23{fill:url(#SVGID_24_);}
	.st24{fill:url(#SVGID_25_);}
	.st25{fill:url(#SVGID_26_);}
	.st26{fill:#005BAB;}
	.st27{fill:url(#SVGID_27_);}
	.st28{fill:#327EB7;}
	.st29{fill:none;}
	.st30{fill:url(#SVGID_28_);}
	.st31{fill:url(#SVGID_29_);}
</style>
<g>
	<g>
		<linearGradient id="SVGID_1_" gradientUnits="userSpaceOnUse" x1="323.3438" y1="67.4747" x2="347.1019" y2="67.4747">
			<stop  offset="0" style="stop-color:#7131AD"/>
			<stop  offset="1" style="stop-color:#A831C0"/>
		</linearGradient>
		<path class="st0" d="M328.03,62.28h14.38c2.59,0,4.69,2.32,4.69,5.19v0c0,2.87-2.1,5.19-4.69,5.19h-14.38
			c-2.59,0-4.69-2.32-4.69-5.19v0C323.34,64.61,325.44,62.28,328.03,62.28z"/>
		<linearGradient id="SVGID_2_" gradientUnits="userSpaceOnUse" x1="319.5103" y1="46.7133" x2="361.0332" y2="46.7133">
			<stop  offset="0" style="stop-color:#F85378"/>
			<stop  offset="1" style="stop-color:#FF63A6"/>
		</linearGradient>
		<path class="st1" d="M324.7,41.52h31.14c2.87,0,5.19,2.32,5.19,5.19v0c0,2.87-2.32,5.19-5.19,5.19H324.7
			c-2.87,0-5.19-2.32-5.19-5.19v0C319.51,43.85,321.83,41.52,324.7,41.52z"/>
		<linearGradient id="SVGID_3_" gradientUnits="userSpaceOnUse" x1="370.9162" y1="46.7133" x2="406.9572" y2="46.7133">
			<stop  offset="0" style="stop-color:#305FB7"/>
			<stop  offset="1" style="stop-color:#3498BE"/>
		</linearGradient>
		<path class="st2" d="M406.96,46.71L406.96,46.71c0,2.87-2,5.19-4.47,5.19h-27.11c-2.47,0-4.47-2.32-4.47-5.19v0
			c0-2.87,2-5.19,4.47-5.19h27.11C404.96,41.52,406.96,43.85,406.96,46.71z"/>
		<linearGradient id="SVGID_4_" gradientUnits="userSpaceOnUse" x1="417.338" y1="52.148" x2="467.691" y2="52.148">
			<stop  offset="0" style="stop-color:#7131AD"/>
			<stop  offset="1" style="stop-color:#A831C0"/>
		</linearGradient>
		<path class="st3" d="M427.37,51.9h-4.85c-2.86,0-5.19-2.32-5.19-5.19v-0.01c0-2.86,2.32-5.19,5.19-5.19h4.85
			c13.19,0,25.51,3.81,35.92,10.38c0.72,0.46,1.44,0.93,2.15,1.41c2.55,1.75,3.02,5.34,0.99,7.68v0c-1.74,2.01-4.71,2.35-6.9,0.85
			C450.36,55.57,439.28,51.9,427.37,51.9z"/>
		<linearGradient id="SVGID_5_" gradientUnits="userSpaceOnUse" x1="319.5103" y1="171.282" x2="385.877" y2="171.282">
			<stop  offset="0" style="stop-color:#F85378"/>
			<stop  offset="1" style="stop-color:#FF63A6"/>
		</linearGradient>
		<path class="st4" d="M323.96,166.09h57.47c2.46,0,4.45,2.32,4.45,5.19l0,0c0,2.87-1.99,5.19-4.45,5.19h-57.47
			c-2.46,0-4.45-2.32-4.45-5.19l0,0C319.51,168.42,321.5,166.09,323.96,166.09z"/>
		<linearGradient id="SVGID_6_" gradientUnits="userSpaceOnUse" x1="401.4209" y1="153.062" x2="489.2393" y2="153.062">
			<stop  offset="0" style="stop-color:#305FB7"/>
			<stop  offset="1" style="stop-color:#3498BE"/>
		</linearGradient>
		<path class="st5" d="M485.13,129.77c3.22,0.69,5.02,4.19,3.65,7.19c-5.49,12.01-14.4,22.14-25.49,29.14
			c-10.41,6.57-22.73,10.38-35.92,10.38h-20.76c-2.87,0-5.19-2.32-5.19-5.19v0c0-2.87,2.32-5.19,5.19-5.19h20.76
			c23.02,0,42.9-13.7,51.93-33.37C480.32,130.5,482.73,129.25,485.13,129.77L485.13,129.77z"/>
		<linearGradient id="SVGID_7_" gradientUnits="userSpaceOnUse" x1="315.6768" y1="25.9518" x2="374.3611" y2="25.9518">
			<stop  offset="0" style="stop-color:#7131AD"/>
			<stop  offset="1" style="stop-color:#A831C0"/>
		</linearGradient>
		<path class="st6" d="M369.74,31.14H320.3c-2.55,0-4.62-2.32-4.62-5.19v0c0-2.87,2.07-5.19,4.62-5.19h49.44
			c2.55,0,4.62,2.32,4.62,5.19v0C374.36,28.82,372.29,31.14,369.74,31.14z"/>
		<linearGradient id="SVGID_8_" gradientUnits="userSpaceOnUse" x1="385.5038" y1="39.6628" x2="494.1801" y2="39.6628">
			<stop  offset="0" style="stop-color:#F85378"/>
			<stop  offset="1" style="stop-color:#FF63A6"/>
		</linearGradient>
		<path class="st7" d="M427.37,31.14h-36.68c-2.87,0-5.19-2.32-5.19-5.19v0c0-2.87,2.32-5.19,5.19-5.19h36.68
			c14.99,0,29.12,3.76,41.5,10.38c9.05,4.85,17.17,11.23,24,18.79c2.13,2.36,1.59,6.08-1.08,7.8v0c-2.13,1.37-4.94,1.01-6.64-0.87
			C470.89,41.08,450.27,31.14,427.37,31.14z"/>
		<linearGradient id="SVGID_9_" gradientUnits="userSpaceOnUse" x1="315.6768" y1="192.0435" x2="354.9837" y2="192.0435">
			<stop  offset="0" style="stop-color:#7131AD"/>
			<stop  offset="1" style="stop-color:#A831C0"/>
		</linearGradient>
		<path class="st8" d="M320.87,186.85h28.93c2.87,0,5.19,2.32,5.19,5.19v0c0,2.87-2.32,5.19-5.19,5.19h-28.93
			c-2.87,0-5.19-2.32-5.19-5.19v0C315.68,189.18,318,186.85,320.87,186.85z"/>
		<linearGradient id="SVGID_10_" gradientUnits="userSpaceOnUse" x1="366.1264" y1="186.2454" x2="474.8653" y2="186.2454">
			<stop  offset="0" style="stop-color:#348FD3"/>
			<stop  offset="1" style="stop-color:#34D7D1"/>
		</linearGradient>
		<path class="st9" d="M474.25,177.99c1.3,2.44,0.48,5.48-1.9,6.89c-1.15,0.68-2.31,1.34-3.49,1.97
			c-12.37,6.62-26.51,10.38-41.5,10.38h-56.06c-2.87,0-5.19-2.32-5.19-5.19v0c0-2.87,2.32-5.19,5.19-5.19h56.06
			c14.45,0,28-3.96,39.61-10.85C469.54,174.48,472.85,175.36,474.25,177.99L474.25,177.99z"/>
		<linearGradient id="SVGID_11_" gradientUnits="userSpaceOnUse" x1="481.0995" y1="118.9271" x2="515.6089" y2="118.9271">
			<stop  offset="0" style="stop-color:#7131AD"/>
			<stop  offset="1" style="stop-color:#A831C0"/>
		</linearGradient>
		<path class="st10" d="M515.61,109c0,24.2-9.8,46.16-25.63,62.12c-2.46,2.48-6.62,1.88-8.27-1.2l0,0c-1.08-2.03-0.68-4.5,0.93-6.13
			c13.96-14.08,22.59-33.44,22.59-54.78c0-13.05-3.23-25.35-8.92-36.16c-1.26-2.39-0.51-5.34,1.76-6.8l0.01-0.01
			c2.54-1.64,5.97-0.78,7.38,1.9C511.94,80.2,515.61,94.18,515.61,109z"/>
		<linearGradient id="SVGID_12_" gradientUnits="userSpaceOnUse" x1="305.5719" y1="5.1904" x2="360.9895" y2="5.1904">
			<stop  offset="0" style="stop-color:#305FB7"/>
			<stop  offset="1" style="stop-color:#3498BE"/>
		</linearGradient>
		<path class="st11" d="M350.61,10.38h-35.74c-3.02,0-5.48-2.32-5.48-5.19v0c0-2.87,2.45-5.19,5.48-5.19h35.74
			c3.02,0,5.48,2.32,5.48,5.19v0C356.08,8.06,353.63,10.38,350.61,10.38z"/>
		<linearGradient id="SVGID_13_" gradientUnits="userSpaceOnUse" x1="309.3938" y1="212.8049" x2="375.885" y2="212.8049">
			<stop  offset="0" style="stop-color:#305FB7"/>
			<stop  offset="1" style="stop-color:#3498BE"/>
		</linearGradient>
		<path class="st12" d="M314.58,207.61h56.11c2.87,0,5.19,2.32,5.19,5.19v0c0,2.87-2.32,5.19-5.19,5.19h-56.11
			c-2.87,0-5.19-2.32-5.19-5.19v0C309.39,209.94,311.72,207.61,314.58,207.61z"/>
		<linearGradient id="SVGID_14_" gradientUnits="userSpaceOnUse" x1="388.2174" y1="212.8049" x2="427.7187" y2="212.8049">
			<stop  offset="0" style="stop-color:#7131AD"/>
			<stop  offset="1" style="stop-color:#A831C0"/>
		</linearGradient>
		<path class="st13" d="M427.72,212.8L427.72,212.8c0,2.87-2.32,5.19-5.19,5.19h-29.12c-2.87,0-5.19-2.32-5.19-5.19v0
			c0-2.87,2.32-5.19,5.19-5.19h29.12C425.39,207.61,427.72,209.94,427.72,212.8z"/>
		<linearGradient id="SVGID_15_" gradientUnits="userSpaceOnUse" x1="438.0994" y1="165.4887" x2="535.858" y2="165.4887">
			<stop  offset="0" style="stop-color:#F85378"/>
			<stop  offset="1" style="stop-color:#FF63A6"/>
		</linearGradient>
		<path class="st14" d="M530.68,114.19c3.05,0,5.45,2.63,5.15,5.67c-3.85,38.89-28.14,71.78-61.98,87.75
			c-9.28,4.39-19.29,7.5-29.8,9.11c-3.13,0.48-5.96-1.95-5.96-5.12v-0.04c0-2.57,1.9-4.73,4.44-5.12
			c44.04-6.82,78.53-42.88,82.97-87.65c0.26-2.63,2.5-4.61,5.14-4.61H530.68z"/>
		<linearGradient id="SVGID_16_" gradientUnits="userSpaceOnUse" x1="481.2914" y1="61.1434" x2="535.8558" y2="61.1434">
			<stop  offset="0" style="stop-color:#305FB7"/>
			<stop  offset="1" style="stop-color:#3498BE"/>
		</linearGradient>
		<path class="st15" d="M481.92,21.23l0.02-0.03c1.47-2.71,4.98-3.56,7.51-1.8c25.54,17.73,43.15,46.1,46.38,78.7
			c0.3,3.06-2.1,5.71-5.17,5.71h0c-2.66,0-4.9-2.01-5.16-4.65c-2.93-29.45-18.88-55.13-41.99-71.2
			C481.34,26.45,480.66,23.55,481.92,21.23z"/>
		<linearGradient id="SVGID_17_" gradientUnits="userSpaceOnUse" x1="375.123" y1="108.6245" x2="453.3245" y2="108.6245">
			<stop  offset="0" style="stop-color:#305FB7"/>
			<stop  offset="1" style="stop-color:#3498BE"/>
		</linearGradient>
		<path class="st16" d="M453.32,109c0,5.84-1.94,11.24-5.2,15.57c-3.4,4.52-8.24,7.9-13.83,9.44c-3.3,0.91-6.57-1.58-6.57-5.01v0
			c0-2.35,1.6-4.38,3.86-5.01c6.77-1.9,11.69-8.28,11.35-15.72c-0.38-8.37-7.54-14.84-15.93-14.84h-46.69
			c-2.87,0-5.19-2.32-5.19-5.19v0c0-2.87,2.32-5.19,5.19-5.19h47.06c8.47,0,16.01,4.08,20.75,10.38
			C451.39,97.76,453.32,103.16,453.32,109z"/>
		<linearGradient id="SVGID_18_" gradientUnits="userSpaceOnUse" x1="339.1365" y1="88.2362" x2="465.3333" y2="88.2362">
			<stop  offset="0" style="stop-color:#348FD3"/>
			<stop  offset="1" style="stop-color:#34D7D1"/>
		</linearGradient>
		<path class="st17" d="M462.76,87.9l-0.25,0.14c-2.16,1.21-4.9,0.69-6.43-1.27c-6.65-8.57-17.05-14.1-28.72-14.1h-41.52
			c-9.88,0-18.85,3.97-25.41,10.38c-3.04,2.98-5.56,6.49-7.41,10.38c-2.26,4.72-3.52,10-3.52,15.57c0,0.02,0,0.04,0,0.05
			c0,2.82-2.22,5.14-5.05,5.14h-0.28c-2.76,0-5.04-2.22-5.05-4.98c0-0.07,0-0.14,0-0.21c0-5.45,0.94-10.7,2.67-15.57
			c1.31-3.7,3.07-7.18,5.22-10.38c2.63-3.92,5.83-7.42,9.49-10.38c8.02-6.49,18.23-10.38,29.33-10.38h41.52
			c11.1,0,21.31,3.89,29.33,10.38c2.8,2.27,5.34,4.85,7.55,7.69C466.16,82.81,465.47,86.38,462.76,87.9z"/>
		<linearGradient id="SVGID_19_" gradientUnits="userSpaceOnUse" x1="323.3438" y1="150.5206" x2="352.4099" y2="150.5206">
			<stop  offset="0" style="stop-color:#305FB7"/>
			<stop  offset="1" style="stop-color:#3498BE"/>
		</linearGradient>
		<path class="st18" d="M328.53,145.33h18.69c2.87,0,5.19,2.32,5.19,5.19v0c0,2.87-2.32,5.19-5.19,5.19h-18.69
			c-2.87,0-5.19-2.32-5.19-5.19v0C323.34,147.65,325.67,145.33,328.53,145.33z"/>
		<linearGradient id="SVGID_20_" gradientUnits="userSpaceOnUse" x1="361.282" y1="150.5206" x2="431.179" y2="150.5206">
			<stop  offset="0" style="stop-color:#348FD3"/>
			<stop  offset="1" style="stop-color:#34D7D1"/>
		</linearGradient>
		<path class="st19" d="M431.14,151.2c-0.33,2.62-2.68,4.51-5.32,4.51h-59.34c-2.87,0-5.19-2.32-5.19-5.19v0
			c0-2.87,2.32-5.19,5.19-5.19h59.52C429.08,145.33,431.54,148.03,431.14,151.2z"/>
		<linearGradient id="SVGID_21_" gradientUnits="userSpaceOnUse" x1="448.623" y1="121.7213" x2="474.086" y2="121.7213">
			<stop  offset="0" style="stop-color:#7131AD"/>
			<stop  offset="1" style="stop-color:#A831C0"/>
		</linearGradient>
		<path class="st20" d="M474.09,109c0,14.66-6.79,27.76-17.38,36.33l0,0c-2.18,1.76-5.41,1.18-6.85-1.23l-0.56-0.94
			c-1.18-1.98-0.77-4.55,1.02-6.01c8.17-6.66,13.39-16.81,13.39-28.15c0-2.02-0.17-4-0.49-5.93c-0.32-1.93,0.6-3.86,2.31-4.82
			l0.99-0.56c2.77-1.56,6.31,0.05,6.86,3.18C473.84,103.51,474.09,106.23,474.09,109z"/>
		<linearGradient id="SVGID_22_" gradientUnits="userSpaceOnUse" x1="327.9938" y1="129.7591" x2="358.5326" y2="129.7591">
			<stop  offset="0" style="stop-color:#7131AD"/>
			<stop  offset="1" style="stop-color:#A831C0"/>
		</linearGradient>
		<path class="st21" d="M353.34,134.95h-20.16c-2.87,0-5.19-2.32-5.19-5.19v0c0-2.87,2.32-5.19,5.19-5.19h20.16
			c2.87,0,5.19,2.32,5.19,5.19v0C358.53,132.63,356.21,134.95,353.34,134.95z"/>
		<linearGradient id="SVGID_23_" gradientUnits="userSpaceOnUse" x1="402.805" y1="108.9976" x2="432.563" y2="108.9976">
			<stop  offset="0" style="stop-color:#348FD3"/>
			<stop  offset="1" style="stop-color:#34D7D1"/>
		</linearGradient>
		<path class="st22" d="M427.37,114.19H408c-2.87,0-5.19-2.32-5.19-5.19v0c0-2.87,2.32-5.19,5.19-5.19h19.38
			c2.87,0,5.19,2.32,5.19,5.19v0C432.56,111.86,430.24,114.19,427.37,114.19z"/>
		<linearGradient id="SVGID_24_" gradientUnits="userSpaceOnUse" x1="368.2724" y1="9.6887" x2="474.778" y2="9.6887">
			<stop  offset="0" style="stop-color:#348FD3"/>
			<stop  offset="1" style="stop-color:#34D7D1"/>
		</linearGradient>
		<path class="st23" d="M471.79,9.49l0.02-0.05C458.24,3.38,443.2,0,427.37,0h-53.91c-1.43,0-2.73,0.58-3.67,1.52
			c-0.94,0.94-1.52,2.24-1.52,3.67c0,2.87,2.33,5.19,5.19,5.19h53.91c14.15,0,27.61,3,39.79,8.39c0.73,0.38,1.55,0.6,2.43,0.6
			c2.87,0,5.19-2.32,5.19-5.19C474.78,12.11,473.55,10.32,471.79,9.49z"/>
		<linearGradient id="SVGID_25_" gradientUnits="userSpaceOnUse" x1="359.8979" y1="119.3784" x2="417.338" y2="119.3784">
			<stop  offset="0" style="stop-color:#F85378"/>
			<stop  offset="1" style="stop-color:#FF63A6"/>
		</linearGradient>
		<path class="st24" d="M412.15,124.57h-25.9c-8.64,0-15.97-6.98-15.97-15.57c0-0.01,0-0.01,0-0.01c-0.01-2.86-2.33-5.18-5.19-5.18
			c-2.87,0-5.19,2.33-5.19,5.19c0,5.84,1.94,11.24,5.2,15.57c4.74,6.3,12.28,10.38,20.75,10.38h26.3c2.87,0,5.19-2.33,5.19-5.19
			C417.34,126.89,415.01,124.57,412.15,124.57z"/>
		<linearGradient id="SVGID_26_" gradientUnits="userSpaceOnUse" x1="476.8542" y1="94.4646" x2="494.8474" y2="94.4646">
			<stop  offset="0" style="stop-color:#F85378"/>
			<stop  offset="1" style="stop-color:#FF63A6"/>
		</linearGradient>
		<path class="st25" d="M494.84,109.6c0-0.2,0-0.41,0-0.61c0-11.82-3.06-22.95-8.42-32.62l-0.04,0.03
			c-0.93-1.42-2.52-2.35-4.34-2.35c-2.87,0-5.19,2.33-5.19,5.19c0,1.08,0.33,2.08,0.89,2.91c4.28,8.01,6.72,17.15,6.72,26.84
			c0,0.13,0,0.26-0.01,0.39l0.02,0c-0.01,0.1-0.02,0.2-0.02,0.3c0,2.87,2.32,5.19,5.19,5.19c2.78,0,5.04-2.18,5.18-4.92l0.01,0
			c0-0.05,0-0.1,0-0.15c0-0.04,0.01-0.08,0.01-0.12C494.85,109.66,494.84,109.63,494.84,109.6z"/>
		<circle class="st26" cx="385.85" cy="109" r="5.19"/>
		<linearGradient id="SVGID_27_" gradientUnits="userSpaceOnUse" x1="327.9938" y1="88.2362" x2="338.3745" y2="88.2362">
			<stop  offset="0" style="stop-color:#305FB7"/>
			<stop  offset="1" style="stop-color:#3498BE"/>
		</linearGradient>
		<circle class="st27" cx="333.18" cy="88.24" r="5.19"/>
	</g>
	<g>
		<polygon class="st28" points="686.91,389.08 687.93,388.06 687.93,389.08 		"/>
		<line class="st29" x1="688.02" y1="331.08" x2="687.93" y2="331.08"/>
		<g>
			<g>
				<rect x="699.93" y="382.24" class="st28" width="32" height="17"/>
				<path class="st28" d="M731.25,326.9c-3.44-18.59-19.74-32.66-39.32-32.66c-8.56,0-16.49,2.69-23,7.28v30.72h0.09
					c1.01-11.75,10.9-21,22.91-21c12.68,0,23,10.32,23,23c0,4.85-1.51,9.35-4.08,13.06l-5.86,5.86l-20.4,20.4l-25.68,25.68h24.04
					l33.08-33.08l7.82-7.82c5.07-6.7,8.08-15.05,8.08-24.1C731.93,331.73,731.7,329.28,731.25,326.9z"/>
			</g>
			<g>
				<linearGradient id="SVGID_28_" gradientUnits="userSpaceOnUse" x1="781.3942" y1="346.7392" x2="804.1096" y2="346.7392">
					<stop  offset="0" style="stop-color:#F85378"/>
					<stop  offset="1" style="stop-color:#FF63A6"/>
				</linearGradient>
				<circle class="st30" cx="792.75" cy="346.74" r="11.36"/>
				<path class="st28" d="M792.75,294.24c-28.99,0-52.5,23.51-52.5,52.5c0,28.99,23.51,52.5,52.5,52.5s52.5-23.51,52.5-52.5
					C845.25,317.74,821.75,294.24,792.75,294.24z M792.75,382.24c-19.58,0-35.5-15.92-35.5-35.5s15.92-35.5,35.5-35.5
					s35.5,15.92,35.5,35.5S812.33,382.24,792.75,382.24z"/>
			</g>
		</g>
		<g>
			<path class="st28" d="M87.01,345.68c0,7.19-1.31,13.85-4.05,20.12c-2.87,6.4-6.53,11.89-11.23,16.72
				c-4.7,4.7-10.32,8.49-16.72,11.23c-6.27,2.74-13.06,4.18-20.25,4.18H0l17.38-17.51h17.37c4.83,0,9.41-0.91,13.59-2.61
				c4.18-1.83,7.97-4.31,11.1-7.58c3.14-3.27,5.62-6.92,7.45-11.1c1.83-4.31,2.74-8.75,2.74-13.46s-0.91-9.14-2.74-13.46
				c-1.83-4.18-4.31-7.84-7.58-11.1c-3.14-3.14-6.92-5.75-11.1-7.58c-4.18-1.7-8.75-2.61-13.46-2.61H17.38L0,293.43h34.75
				c7.19,0,13.85,1.44,20.25,4.18c6.27,2.74,11.89,6.53,16.59,11.24c4.83,4.83,8.49,10.32,11.37,16.72
				C85.7,331.83,87.01,338.5,87.01,345.68z"/>
			<path class="st28" d="M125.67,359.92v-0.13l-29.66,38.15H73.68l41.02-52.26l-41.02-52.26h22.34l29.66,38.15l29.79-38.15h22.08
				l-40.76,52.26L125.67,359.92z M125.67,359.92l-29.66,38.02l29.66-38.15V359.92z"/>
			<path class="st28" d="M270.67,354.43c0,12.02-4.18,22.34-12.8,30.83c-8.49,8.49-18.94,12.67-30.83,12.67
				c-11.89,0-22.21-4.18-30.7-12.67c-8.49-8.49-12.67-18.94-12.67-30.83v-61.01h17.38v61.01c0,7.19,2.48,13.33,7.45,18.29
				c5.09,5.23,11.37,7.71,18.55,7.71c7.18,0,13.33-2.61,18.42-7.71c5.09-5.09,7.84-11.24,7.84-18.29H270.67z"/>
			<linearGradient id="SVGID_29_" gradientUnits="userSpaceOnUse" x1="264.0133" y1="345.6812" x2="341.0905" y2="345.6812">
				<stop  offset="0" style="stop-color:#F85378"/>
				<stop  offset="1" style="stop-color:#FF63A6"/>
			</linearGradient>
			<path class="st31" d="M288.83,345.68l52.26,52.26h-24.56L271.33,353l-7.32-7.18l7.32-7.32l45.2-45.07h24.56L288.83,345.68z
				 M271.33,338.5l45.2-45.07L271.33,338.5z M316.53,397.94L271.33,353L316.53,397.94z"/>
			<path class="st28" d="M361.08,354.43c-8.49,0-15.68-3-21.56-8.88c-5.88-6.01-8.88-13.19-8.88-21.69c0-8.36,3-15.42,8.88-21.42
				c5.88-6.01,13.06-9.01,21.56-9.01v17.51c-1.83,0-3.53,0.26-5.09,0.91c-1.7,0.65-3,1.57-4.31,2.87c-1.18,1.18-2.09,2.61-2.74,4.18
				c-0.65,1.57-0.91,3.27-0.91,4.96c0,3.66,1.18,6.66,3.66,9.28c2.61,2.61,5.62,3.92,9.41,3.92h26c8.49,0,15.68,3,21.56,8.88
				c6.01,6.01,9.01,13.19,9.01,21.56s-3,15.55-9.01,21.56c-5.88,5.88-13.06,8.88-21.56,8.88v-17.51c1.83,0,3.53-0.26,5.09-0.91
				c1.7-0.65,3.13-1.57,4.31-2.74c1.18-1.18,2.09-2.48,2.74-4.18c0.65-1.57,1.05-3.27,1.05-5.09c0-3.53-1.44-6.53-3.92-9.14
				c-2.61-2.61-5.62-3.92-9.27-3.92H361.08z"/>
			<path class="st28" d="M507.57,293.43v104.51H490.2v-43.5h-52.26v43.5h-17.38v-43.5l17.38-17.51h52.26v-43.5H507.57z"/>
			<path class="st28" d="M545.26,380.43l-8.88,17.51h-19.33l52.26-104.51l34.88,69.76h-19.6l-15.28-30.7l-15.42,30.7L545.26,380.43z
				 M621.55,397.94h-19.46l-8.62-17.38h19.33L621.55,397.94z"/>
			<rect x="253.79" y="293" class="st28" width="17.05" height="42.13"/>
		</g>
		<polygon class="st28" points="636.69,293.08 646.53,312.75 656.36,293.08 		"/>
	</g>
</g>
</svg>
