<?xml version="1.0" encoding="utf-8"?>
<!-- Generator: Adobe Illustrator 22.0.1, SVG Export Plug-In . SVG Version: 6.00 Build 0)  -->
<svg version="1.1" id="Layer_1" xmlns="http://www.w3.org/2000/svg" xmlns:xlink="http://www.w3.org/1999/xlink" x="0px" y="0px"
	 viewBox="0 0 2108.8 2046.7" style="enable-background:new 0 0 2108.8 2046.7;" xml:space="preserve">
<style type="text/css">
	.st0{fill:#FFFFFF;}
	.st1{fill:#F29E19;}
	.st2{fill:#353535;}
	.st3{fill:#0096EA;}
	.st4{fill:#F26457;}
	.st5{fill:#E83636;}
	.st6{opacity:0.85;}
	.st7{fill:#111111;}
</style>
<g>
	<polygon class="st0" points="660.7,1969.7 635.7,1969.7 636.2,1534.2 499.2,1534.2 499.2,1434.2 524.2,1434.2 524.2,1509.2 
		661.2,1509.2 	"/>
</g>
<g>
	<polygon class="st0" points="1182.2,850.7 1164.2,850.7 1164.2,355.7 671.2,355.7 671.2,404.7 343.2,404.7 343.2,270.7 
		114.2,270.7 114.2,252.7 361.2,252.7 361.2,386.7 653.2,386.7 653.2,337.7 1182.2,337.7 	"/>
</g>
<g>
	<rect x="653.2" y="197.7" class="st0" width="18" height="151"/>
</g>
<g>
	<polygon class="st0" points="1058,1709 1040.3,1691.3 1164.2,1567.5 1164.2,839.7 1316,839.7 1631.8,523.8 1649.5,541.5 
		1326.3,864.7 1189.2,864.7 1189.2,1577.8 	"/>
</g>
<g>
	<polygon class="st1" points="1347,2026.3 1040.4,1719.7 283.7,1719.7 283.7,1679.7 1057,1679.7 1375.3,1998 	"/>
</g>
<g>
	<g>
		<rect x="83.2" y="1310.4" class="st2" width="2" height="50.4"/>
	</g>
	<g>
		<rect x="102.3" y="1310.4" class="st2" width="2" height="50.4"/>
	</g>
	<g>
		<rect x="121.5" y="1310.4" class="st2" width="2" height="50.4"/>
	</g>
	<g>
		<rect x="140.6" y="1310.4" class="st2" width="2" height="50.4"/>
	</g>
	<g>
		<rect x="159.7" y="1310.4" class="st2" width="2" height="50.4"/>
	</g>
	<g>
		<rect x="178.9" y="1310.4" class="st2" width="2" height="50.4"/>
	</g>
	<g>
		<rect x="198" y="1310.4" class="st2" width="2" height="50.4"/>
	</g>
	<g>
		<rect x="217.2" y="1310.4" class="st2" width="2" height="50.4"/>
	</g>
	<g>
		<rect x="236.3" y="1310.4" class="st2" width="2" height="50.4"/>
	</g>
	<g>
		<rect x="255.5" y="1310.4" class="st2" width="2" height="50.4"/>
	</g>
	<g>
		<rect x="274.6" y="1310.4" class="st2" width="2" height="50.4"/>
	</g>
	<g>
		<rect x="293.7" y="1310.4" class="st2" width="2" height="50.4"/>
	</g>
	<g>
		<rect x="312.9" y="1310.4" class="st2" width="2" height="50.4"/>
	</g>
	<g>
		<rect x="332" y="1310.4" class="st2" width="2" height="50.4"/>
	</g>
	<g>
		<rect x="351.2" y="1310.4" class="st2" width="2" height="50.4"/>
	</g>
	<g>
		<rect x="370.3" y="1310.4" class="st2" width="2" height="50.4"/>
	</g>
	<g>
		<rect x="389.4" y="1310.4" class="st2" width="2" height="50.4"/>
	</g>
	<g>
		<rect x="408.6" y="1310.4" class="st2" width="2" height="50.4"/>
	</g>
	<g>
		<rect x="427.7" y="1310.4" class="st2" width="2" height="50.4"/>
	</g>
	<g>
		<rect x="446.9" y="1310.4" class="st2" width="2" height="50.4"/>
	</g>
	<g>
		<rect x="466" y="1310.4" class="st2" width="2" height="50.4"/>
	</g>
	<g>
		<rect x="485.2" y="1310.4" class="st2" width="2" height="50.4"/>
	</g>
	<g>
		<rect x="504.3" y="1310.4" class="st2" width="2" height="50.4"/>
	</g>
	<g>
		<rect x="523.4" y="1310.4" class="st2" width="2" height="50.4"/>
	</g>
	<g>
		<rect x="542.6" y="1310.4" class="st2" width="2" height="50.4"/>
	</g>
	<g>
		<rect x="561.7" y="1310.4" class="st2" width="2" height="50.4"/>
	</g>
	<g>
		<rect x="580.9" y="1310.4" class="st2" width="2" height="50.4"/>
	</g>
	<g>
		<rect x="600" y="1310.4" class="st2" width="2" height="50.4"/>
	</g>
	<g>
		<rect x="619.2" y="1310.4" class="st2" width="2" height="50.4"/>
	</g>
	<g>
		<rect x="638.3" y="1310.4" class="st2" width="2" height="50.4"/>
	</g>
	<g>
		<rect x="657.4" y="1310.4" class="st2" width="2" height="50.4"/>
	</g>
	<g>
		<rect x="676.6" y="1310.4" class="st2" width="2" height="50.4"/>
	</g>
	<g>
		<rect x="695.7" y="1310.4" class="st2" width="2" height="50.4"/>
	</g>
	<g>
		<rect x="714.9" y="1310.4" class="st2" width="2" height="50.4"/>
	</g>
	<g>
		<rect x="734" y="1310.4" class="st2" width="2" height="50.4"/>
	</g>
	<g>
		<rect x="753.2" y="1310.4" class="st2" width="2" height="50.4"/>
	</g>
	<g>
		<rect x="772.3" y="1310.4" class="st2" width="2" height="50.4"/>
	</g>
	<g>
		<rect x="791.4" y="1310.4" class="st2" width="2" height="50.4"/>
	</g>
	<g>
		<rect x="810.6" y="1310.4" class="st2" width="2" height="50.4"/>
	</g>
	<g>
		<rect x="829.7" y="1310.4" class="st2" width="2" height="50.4"/>
	</g>
	<g>
		<rect x="848.9" y="1310.4" class="st2" width="2" height="50.4"/>
	</g>
	<g>
		<rect x="868" y="1310.4" class="st2" width="2" height="50.4"/>
	</g>
	<g>
		<rect x="887.2" y="1310.4" class="st2" width="2" height="50.4"/>
	</g>
	<g>
		<rect x="906.3" y="1310.4" class="st2" width="2" height="50.4"/>
	</g>
	<g>
		<rect x="925.4" y="1310.4" class="st2" width="2" height="50.4"/>
	</g>
	<g>
		<rect x="944.6" y="1310.4" class="st2" width="2" height="50.4"/>
	</g>
	<g>
		<rect x="963.7" y="1310.4" class="st2" width="2" height="50.4"/>
	</g>
	<g>
		<rect x="982.9" y="1310.4" class="st2" width="2" height="50.4"/>
	</g>
	<g>
		<rect x="1002" y="1310.4" class="st2" width="2" height="50.4"/>
	</g>
	<g>
		<rect x="1021.2" y="1310.4" class="st2" width="2" height="50.4"/>
	</g>
	<g>
		<rect x="1040.3" y="1310.4" class="st2" width="2" height="50.4"/>
	</g>
	<g>
		<rect x="1059.4" y="1310.4" class="st2" width="2" height="50.4"/>
	</g>
	<g>
		<rect x="1078.6" y="1310.4" class="st2" width="2" height="50.4"/>
	</g>
	<g>
		<rect x="1097.7" y="1310.4" class="st2" width="2" height="50.4"/>
	</g>
	<g>
		<rect x="1116.9" y="1310.4" class="st2" width="2" height="50.4"/>
	</g>
	<g>
		<rect x="1136" y="1310.4" class="st2" width="2" height="50.4"/>
	</g>
	<g>
		<rect x="1155.2" y="1310.4" class="st2" width="2" height="50.4"/>
	</g>
	<g>
		<rect x="1174.3" y="1310.4" class="st2" width="2" height="50.4"/>
	</g>
	<g>
		<rect x="1193.4" y="1310.4" class="st2" width="2" height="50.4"/>
	</g>
	<g>
		<rect x="1212.6" y="1310.4" class="st2" width="2" height="50.4"/>
	</g>
	<g>
		<rect x="1231.7" y="1310.4" class="st2" width="2" height="50.4"/>
	</g>
	<g>
		<rect x="1250.9" y="1310.4" class="st2" width="2" height="50.4"/>
	</g>
	<g>
		<rect x="1270" y="1310.4" class="st2" width="2" height="50.4"/>
	</g>
	<g>
		<rect x="1289.2" y="1310.4" class="st2" width="2" height="50.4"/>
	</g>
	<g>
		<rect x="1308.3" y="1310.4" class="st2" width="2" height="50.4"/>
	</g>
	<g>
		<rect x="1327.4" y="1310.4" class="st2" width="2" height="50.4"/>
	</g>
	<g>
		<rect x="1346.6" y="1310.4" class="st2" width="2" height="50.4"/>
	</g>
	<g>
		<rect x="1365.7" y="1310.4" class="st2" width="2" height="50.4"/>
	</g>
	<g>
		<rect x="1384.9" y="1310.4" class="st2" width="2" height="50.4"/>
	</g>
	<g>
		<rect x="1404" y="1310.4" class="st2" width="2" height="50.4"/>
	</g>
	<g>
		<rect x="1423.2" y="1310.4" class="st2" width="2" height="50.4"/>
	</g>
	<g>
		<rect x="1442.3" y="1310.4" class="st2" width="2" height="50.4"/>
	</g>
	<g>
		<rect x="1461.4" y="1310.4" class="st2" width="2" height="50.4"/>
	</g>
	<g>
		<rect x="1480.6" y="1310.4" class="st2" width="2" height="50.4"/>
	</g>
	<g>
		<rect x="1499.7" y="1310.4" class="st2" width="2" height="50.4"/>
	</g>
	<g>
		<rect x="1518.9" y="1310.4" class="st2" width="2" height="50.4"/>
	</g>
	<g>
		<rect x="1538" y="1310.4" class="st2" width="2" height="50.4"/>
	</g>
	<g>
		<rect x="1557.2" y="1310.4" class="st2" width="2" height="50.4"/>
	</g>
	<g>
		<rect x="1576.3" y="1310.4" class="st2" width="2" height="50.4"/>
	</g>
	<g>
		<rect x="1595.4" y="1310.4" class="st2" width="2" height="50.4"/>
	</g>
	<g>
		<rect x="1614.6" y="1310.4" class="st2" width="2" height="50.4"/>
	</g>
	<g>
		<rect x="1633.7" y="1310.4" class="st2" width="2" height="50.4"/>
	</g>
	<g>
		<rect x="1652.9" y="1310.4" class="st2" width="2" height="50.4"/>
	</g>
	<g>
		<rect x="1672" y="1310.4" class="st2" width="2" height="50.4"/>
	</g>
	<g>
		<rect x="1691.2" y="1310.4" class="st2" width="2" height="50.4"/>
	</g>
</g>
<g>
	<rect x="72.7" y="1330.5" class="st2" width="1632" height="10"/>
</g>
<g>
	<path class="st3" d="M568.1,1688.1c2,1.1,3.5,2.7,4.6,4.6c1.1,2,1.7,4.2,1.7,6.7s-0.6,4.7-1.7,6.7c-1.1,2-2.7,3.5-4.6,4.7
		s-4.1,1.7-6.5,1.7s-4.5-0.6-6.5-1.7s-3.5-2.7-4.6-4.7s-1.7-4.2-1.7-6.7s0.6-4.7,1.7-6.7c1.1-2,2.7-3.5,4.6-4.6
		c2-1.1,4.1-1.7,6.5-1.7S566.2,1686.9,568.1,1688.1z M556.8,1694.1c-1.2,1.3-1.8,3.1-1.8,5.3c0,2.2,0.6,4,1.8,5.3s2.8,2,4.8,2
		s3.6-0.7,4.8-2s1.8-3.1,1.8-5.3c0-2.2-0.6-4-1.8-5.3s-2.8-2-4.8-2S558,1692.8,556.8,1694.1z"/>
	<path class="st3" d="M584,1685.6v26.6h-6.2v-26.6H584z"/>
	<path class="st3" d="M599.9,1692.9c1.1,0.7,1.9,1.6,2.4,2.8v-3.6h6.1v20.1h-6.1v-3.6c-0.5,1.2-1.3,2.1-2.4,2.8c-1.1,0.7-2.4,1-4,1
		c-1.7,0-3.1-0.4-4.4-1.2c-1.3-0.8-2.3-2-3.1-3.6s-1.1-3.4-1.1-5.5s0.4-3.9,1.1-5.5s1.8-2.7,3.1-3.6c1.3-0.8,2.8-1.2,4.4-1.2
		C597.5,1691.9,598.8,1692.2,599.9,1692.9z M594.7,1698.6c-0.8,0.9-1.2,2.1-1.2,3.6s0.4,2.7,1.2,3.6s1.9,1.3,3.2,1.3
		s2.4-0.4,3.2-1.3s1.2-2.1,1.2-3.6s-0.4-2.7-1.2-3.6s-1.9-1.3-3.2-1.3C596.6,1697.3,595.5,1697.7,594.7,1698.6z"/>
	<path class="st3" d="M622,1706.2l4.4-14.1h6.6l-7.1,20.1h-7.6l-7.1-20.1h6.6L622,1706.2z"/>
	<path class="st3" d="M647,1692.9c1.1,0.7,1.9,1.6,2.4,2.8v-3.6h6.1v20.1h-6.1v-3.6c-0.5,1.2-1.3,2.1-2.4,2.8c-1.1,0.7-2.4,1-4,1
		c-1.7,0-3.1-0.4-4.4-1.2c-1.3-0.8-2.3-2-3.1-3.6s-1.1-3.4-1.1-5.5s0.4-3.9,1.1-5.5s1.8-2.7,3.1-3.6c1.3-0.8,2.8-1.2,4.4-1.2
		C644.6,1691.9,645.9,1692.2,647,1692.9z M641.9,1698.6c-0.8,0.9-1.2,2.1-1.2,3.6s0.4,2.7,1.2,3.6s1.9,1.3,3.2,1.3s2.4-0.4,3.2-1.3
		s1.2-2.1,1.2-3.6s-0.4-2.7-1.2-3.6s-1.9-1.3-3.2-1.3C643.7,1697.3,642.7,1697.7,641.9,1698.6z"/>
	<path class="st3" d="M672,1712.2l-6-8.5v8.5h-6.2v-26.6h6.2v14.6l6-8.1h7.2l-8.1,10l8.3,10L672,1712.2L672,1712.2z"/>
	<path class="st3" d="M696.4,1693.1c1.6,0.8,2.8,2,3.7,3.6s1.3,3.4,1.3,5.5s-0.4,3.9-1.3,5.5c-0.9,1.6-2.1,2.8-3.7,3.6
		c-1.6,0.8-3.4,1.2-5.3,1.2c-2,0-3.8-0.4-5.4-1.2s-2.8-2-3.7-3.6s-1.4-3.4-1.4-5.5s0.5-3.9,1.4-5.5s2.1-2.8,3.7-3.6s3.4-1.2,5.4-1.2
		C693.1,1691.9,694.8,1692.3,696.4,1693.1z M688.1,1698.5c-0.8,0.9-1.2,2.1-1.2,3.7s0.4,2.8,1.2,3.7c0.8,0.8,1.8,1.3,3,1.3
		s2.2-0.4,3-1.3c0.8-0.8,1.2-2.1,1.2-3.7s-0.4-2.8-1.2-3.7c-0.8-0.9-1.8-1.3-3-1.3C689.9,1697.2,688.9,1697.6,688.1,1698.5z"/>
	<path class="st3" d="M716.3,1692.9c1.1,0.7,1.9,1.6,2.4,2.8v-10.2h6.2v26.6h-6.2v-3.6c-0.5,1.2-1.3,2.1-2.4,2.8c-1.1,0.7-2.4,1-4,1
		c-1.7,0-3.1-0.4-4.4-1.2c-1.3-0.8-2.3-2-3.1-3.6s-1.1-3.4-1.1-5.5s0.4-3.9,1.1-5.5c0.8-1.5,1.8-2.7,3.1-3.6
		c1.3-0.8,2.8-1.2,4.4-1.2C713.8,1691.9,715.2,1692.2,716.3,1692.9z M711.1,1698.6c-0.8,0.9-1.2,2.1-1.2,3.6s0.4,2.7,1.2,3.6
		s1.9,1.3,3.2,1.3s2.4-0.4,3.2-1.3s1.2-2.1,1.2-3.6s-0.4-2.7-1.2-3.6s-1.9-1.3-3.2-1.3C713,1697.3,711.9,1697.7,711.1,1698.6z"/>
	<path class="st3" d="M748,1703.3h-13.9c0.1,1.5,0.5,2.6,1.2,3.3c0.7,0.7,1.6,1,2.7,1c0.9,0,1.7-0.2,2.3-0.7s1-1,1.2-1.8h6.5
		c-0.3,1.4-0.8,2.7-1.7,3.8s-2,2-3.4,2.6s-2.9,1-4.6,1c-2,0-3.7-0.4-5.2-1.2c-1.5-0.8-2.7-2-3.6-3.6c-0.9-1.6-1.3-3.4-1.3-5.5
		s0.4-3.9,1.3-5.5s2-2.7,3.6-3.6s3.3-1.2,5.3-1.2s3.7,0.4,5.3,1.2c1.5,0.8,2.7,2,3.5,3.4c0.8,1.5,1.2,3.2,1.2,5.1
		C748.2,1702.2,748.1,1702.7,748,1703.3z M740.9,1697.7c-0.7-0.7-1.6-1-2.7-1c-1.1,0-2.1,0.3-2.8,1s-1.2,1.7-1.3,3h7.8
		C742,1699.4,741.6,1698.4,740.9,1697.7z"/>
</g>
<g>
	<path class="st3" d="M1262.3,1994.3v8.9h-6.2v-25.5h10c3,0,5.3,0.8,6.9,2.3s2.4,3.5,2.4,6.1c0,1.6-0.4,3-1.1,4.2s-1.8,2.2-3.1,2.9
		c-1.4,0.7-3.1,1.1-5.1,1.1H1262.3z M1269.2,1986.1c0-2.2-1.2-3.3-3.7-3.3h-3.1v6.6h3.1C1267.9,1989.4,1269.2,1988.3,1269.2,1986.1z
		"/>
	<path class="st3" d="M1290.1,1983.9c1.1,0.7,1.9,1.6,2.4,2.8v-3.6h6.1v20.1h-6.1v-3.6c-0.5,1.2-1.3,2.1-2.4,2.8c-1.1,0.7-2.4,1-4,1
		c-1.7,0-3.1-0.4-4.4-1.2c-1.3-0.8-2.3-2-3.1-3.6c-0.8-1.6-1.1-3.4-1.1-5.5s0.4-3.9,1.1-5.5c0.8-1.5,1.8-2.7,3.1-3.6
		c1.3-0.8,2.8-1.2,4.4-1.2C1287.6,1982.9,1289,1983.2,1290.1,1983.9z M1284.9,1989.6c-0.8,0.9-1.2,2.1-1.2,3.6s0.4,2.7,1.2,3.6
		c0.8,0.9,1.9,1.3,3.2,1.3c1.3,0,2.4-0.4,3.2-1.3c0.8-0.9,1.2-2.1,1.2-3.6s-0.4-2.7-1.2-3.6c-0.8-0.9-1.9-1.3-3.2-1.3
		C1286.8,1988.3,1285.7,1988.7,1284.9,1989.6z"/>
	<path class="st3" d="M1309,1976.6v26.6h-6.2v-26.6H1309z"/>
	<path class="st3" d="M1324.9,1983.9c1.1,0.7,1.9,1.6,2.4,2.8v-3.6h6.1v20.1h-6.1v-3.6c-0.5,1.2-1.3,2.1-2.4,2.8c-1.1,0.7-2.4,1-4,1
		c-1.7,0-3.1-0.4-4.4-1.2c-1.3-0.8-2.3-2-3.1-3.6c-0.8-1.6-1.1-3.4-1.1-5.5s0.4-3.9,1.1-5.5s1.8-2.7,3.1-3.6
		c1.3-0.8,2.8-1.2,4.4-1.2C1322.4,1982.9,1323.8,1983.2,1324.9,1983.9z M1319.7,1989.6c-0.8,0.9-1.2,2.1-1.2,3.6s0.4,2.7,1.2,3.6
		c0.8,0.9,1.9,1.3,3.2,1.3c1.3,0,2.4-0.4,3.2-1.3c0.8-0.9,1.2-2.1,1.2-3.6s-0.4-2.7-1.2-3.6s-1.9-1.3-3.2-1.3
		C1321.6,1988.3,1320.5,1988.7,1319.7,1989.6z"/>
	<path class="st3" d="M1349.9,2003.2l-6-8.5v8.5h-6.2v-26.6h6.2v14.6l6-8.1h7.2l-8.1,10l8.3,10L1349.9,2003.2L1349.9,2003.2z"/>
	<path class="st3" d="M1371.7,2003.2l-6-8.5v8.5h-6.2v-26.6h6.2v14.6l6-8.1h7.2l-8.1,10l8.3,10L1371.7,2003.2L1371.7,2003.2z"/>
	<path class="st3" d="M1392.9,1983.9c1.1,0.7,1.9,1.6,2.4,2.8v-3.6h6.1v20.1h-6.1v-3.6c-0.5,1.2-1.3,2.1-2.4,2.8c-1.1,0.7-2.4,1-4,1
		c-1.7,0-3.1-0.4-4.4-1.2c-1.3-0.8-2.3-2-3.1-3.6c-0.8-1.6-1.1-3.4-1.1-5.5s0.4-3.9,1.1-5.5s1.8-2.7,3.1-3.6
		c1.3-0.8,2.8-1.2,4.4-1.2C1390.5,1982.9,1391.8,1983.2,1392.9,1983.9z M1387.7,1989.6c-0.8,0.9-1.2,2.1-1.2,3.6s0.4,2.7,1.2,3.6
		c0.8,0.9,1.9,1.3,3.2,1.3c1.3,0,2.4-0.4,3.2-1.3c0.8-0.9,1.2-2.1,1.2-3.6s-0.4-2.7-1.2-3.6s-1.9-1.3-3.2-1.3
		C1389.6,1988.3,1388.5,1988.7,1387.7,1989.6z"/>
	<path class="st3" d="M1417.3,1983.9c1.1,0.7,1.9,1.6,2.4,2.8v-10.2h6.2v26.6h-6.2v-3.6c-0.5,1.2-1.3,2.1-2.4,2.8
		c-1.1,0.7-2.4,1-4,1c-1.7,0-3.1-0.4-4.4-1.2c-1.3-0.8-2.3-2-3.1-3.6c-0.8-1.6-1.1-3.4-1.1-5.5s0.4-3.9,1.1-5.5
		c0.8-1.5,1.8-2.7,3.1-3.6c1.3-0.8,2.8-1.2,4.4-1.2C1414.9,1982.9,1416.2,1983.2,1417.3,1983.9z M1412.2,1989.6
		c-0.8,0.9-1.2,2.1-1.2,3.6s0.4,2.7,1.2,3.6c0.8,0.9,1.9,1.3,3.2,1.3c1.3,0,2.4-0.4,3.2-1.3c0.8-0.9,1.2-2.1,1.2-3.6
		s-0.4-2.7-1.2-3.6c-0.8-0.9-1.9-1.3-3.2-1.3C1414,1988.3,1413,1988.7,1412.2,1989.6z"/>
	<path class="st3" d="M1435.2,2004c0,1.7-0.4,3-1.3,4.1s-2.2,1.6-4.1,1.6v-2.3c0.6,0,1.1-0.1,1.4-0.4s0.5-0.8,0.5-1.7v-0.4h-2.6
		v-5.5h5.1C1434.8,2000.8,1435.2,2002.3,1435.2,2004z"/>
	<path class="st3" d="M1255.4,2023.3c2.1,1.7,3.5,4,4.1,6.9h-6.5c-0.5-1.2-1.2-2.1-2.2-2.8s-2.2-1-3.5-1c-1.8,0-3.3,0.7-4.4,2
		s-1.7,3.1-1.7,5.3c0,2.2,0.6,4,1.7,5.3s2.6,2,4.4,2c1.4,0,2.5-0.3,3.5-1s1.7-1.6,2.2-2.7h6.5c-0.6,2.9-2,5.2-4.1,6.9
		c-2.1,1.7-4.8,2.6-8,2.6c-2.5,0-4.6-0.5-6.5-1.6s-3.3-2.6-4.3-4.6s-1.5-4.2-1.5-6.7s0.5-4.8,1.5-6.7s2.5-3.5,4.3-4.6
		c1.9-1.1,4-1.6,6.5-1.6C1250.6,2020.7,1253.3,2021.6,1255.4,2023.3z"/>
	<path class="st3" d="M1277.7,2027.3c1.6,0.8,2.8,2,3.7,3.6c0.9,1.6,1.3,3.4,1.3,5.5s-0.4,3.9-1.3,5.5s-2.1,2.8-3.7,3.6
		c-1.6,0.8-3.4,1.2-5.3,1.2c-2,0-3.8-0.4-5.4-1.2s-2.8-2-3.7-3.6c-0.9-1.6-1.4-3.4-1.4-5.5s0.5-3.9,1.4-5.5s2.1-2.8,3.7-3.6
		s3.4-1.2,5.4-1.2C1274.4,2026.1,1276.2,2026.5,1277.7,2027.3z M1269.4,2032.7c-0.8,0.9-1.2,2.1-1.2,3.7s0.4,2.8,1.2,3.7
		c0.8,0.8,1.8,1.3,3,1.3s2.2-0.4,3-1.3c0.8-0.8,1.2-2.1,1.2-3.7s-0.4-2.8-1.2-3.7c-0.8-0.9-1.8-1.3-3-1.3
		C1271.2,2031.4,1270.2,2031.8,1269.4,2032.7z"/>
	<path class="st3" d="M1286.4,2018.4c0.7-0.6,1.6-0.9,2.7-0.9s2,0.3,2.7,0.9s1,1.4,1,2.3s-0.3,1.7-1,2.3s-1.6,0.9-2.7,0.9
		s-2-0.3-2.7-0.9s-1-1.4-1-2.3S1285.8,2019,1286.4,2018.4z M1292.2,2026.3v20.1h-6.2v-20.1H1292.2z"/>
	<path class="st3" d="M1328.3,2028.4c1.4,1.5,2.1,3.6,2.1,6.4v11.7h-6.1v-10.9c0-1.3-0.3-2.3-1-3s-1.6-1.1-2.8-1.1
		c-1.2,0-2.2,0.4-2.9,1.1c-0.7,0.8-1.1,1.8-1.1,3.2v10.7h-6.2v-10.9c0-1.3-0.3-2.3-1-3s-1.6-1.1-2.8-1.1c-1.2,0-2.2,0.4-2.9,1.1
		c-0.7,0.7-1.1,1.8-1.1,3.2v10.7h-6.2v-20.1h6.2v3.4c0.5-1.1,1.3-2,2.4-2.7s2.4-1,3.8-1c1.5,0,2.9,0.4,4.1,1.1s2.1,1.7,2.7,3
		c0.7-1.2,1.6-2.2,2.9-3c1.2-0.7,2.5-1.1,4-1.1C1324.9,2026.1,1326.9,2026.9,1328.3,2028.4z"/>
	<path class="st3" d="M1351.5,2027.3c1.3,0.8,2.3,2,3.1,3.6s1.1,3.4,1.1,5.5s-0.4,3.9-1.1,5.5c-0.8,1.6-1.8,2.8-3.1,3.6
		c-1.3,0.8-2.8,1.2-4.4,1.2c-1.5,0-2.9-0.3-4-1s-1.9-1.6-2.4-2.8v3.6h-6.2v-26.6h6.2v10.2c0.5-1.2,1.3-2.1,2.4-2.8
		c1.1-0.7,2.4-1,4-1C1348.7,2026.1,1350.2,2026.5,1351.5,2027.3z M1341.9,2032.8c-0.8,0.9-1.2,2.1-1.2,3.6s0.4,2.7,1.2,3.6
		c0.8,0.9,1.9,1.3,3.2,1.3c1.3,0,2.4-0.4,3.2-1.3c0.8-0.9,1.2-2.1,1.2-3.6s-0.4-2.7-1.2-3.6c-0.8-0.9-1.9-1.3-3.2-1.3
		S1342.7,2031.9,1341.9,2032.8z"/>
	<path class="st3" d="M1370.5,2027.1c1.1,0.7,1.9,1.6,2.4,2.8v-3.6h6.1v20.1h-6.1v-3.6c-0.5,1.2-1.3,2.1-2.4,2.8c-1.1,0.7-2.4,1-4,1
		c-1.7,0-3.1-0.4-4.4-1.2c-1.3-0.8-2.3-2-3.1-3.6c-0.8-1.6-1.1-3.4-1.1-5.5s0.4-3.9,1.1-5.5c0.8-1.5,1.8-2.7,3.1-3.6
		c1.3-0.8,2.8-1.2,4.4-1.2C1368.1,2026.1,1369.4,2026.4,1370.5,2027.1z M1365.3,2032.8c-0.8,0.9-1.2,2.1-1.2,3.6s0.4,2.7,1.2,3.6
		c0.8,0.9,1.9,1.3,3.2,1.3c1.3,0,2.4-0.4,3.2-1.3c0.8-0.9,1.2-2.1,1.2-3.6s-0.4-2.7-1.2-3.6c-0.8-0.9-1.9-1.3-3.2-1.3
		C1367.2,2031.5,1366.1,2031.9,1365.3,2032.8z"/>
	<path class="st3" d="M1394.7,2041.1v5.3h-2.8c-2.4,0-4.2-0.6-5.5-1.7c-1.3-1.2-2-3.1-2-5.8v-7.4h-2.7v-5.2h2.7v-4.9h6.2v4.9h4v5.2
		h-4v7.5c0,0.8,0.2,1.3,0.5,1.7s0.9,0.5,1.6,0.5L1394.7,2041.1L1394.7,2041.1z"/>
	<path class="st3" d="M1412.9,2027.3c1.6,0.8,2.8,2,3.7,3.6c0.9,1.6,1.3,3.4,1.3,5.5s-0.4,3.9-1.3,5.5s-2.1,2.8-3.7,3.6
		c-1.6,0.8-3.4,1.2-5.3,1.2c-2,0-3.8-0.4-5.4-1.2s-2.8-2-3.7-3.6c-0.9-1.6-1.4-3.4-1.4-5.5s0.5-3.9,1.4-5.5s2.1-2.8,3.7-3.6
		s3.4-1.2,5.4-1.2C1409.5,2026.1,1411.3,2026.5,1412.9,2027.3z M1404.6,2032.7c-0.8,0.9-1.2,2.1-1.2,3.7s0.4,2.8,1.2,3.7
		c0.8,0.8,1.8,1.3,3,1.3s2.2-0.4,3-1.3c0.8-0.8,1.2-2.1,1.2-3.7s-0.4-2.8-1.2-3.7c-0.8-0.9-1.8-1.3-3-1.3
		C1406.4,2031.4,1405.4,2031.8,1404.6,2032.7z"/>
	<path class="st3" d="M1430.3,2027.2c1.2-0.7,2.5-1.1,3.9-1.1v6.6h-1.8c-1.6,0-2.9,0.3-3.8,1s-1.4,1.9-1.4,3.5v9.1h-6.2v-20.1h6.2
		v3.8C1428.1,2028.9,1429.1,2027.9,1430.3,2027.2z"/>
	<path class="st3" d="M1455.7,2037.5h-13.9c0.1,1.5,0.5,2.6,1.2,3.3c0.7,0.7,1.6,1,2.7,1c0.9,0,1.7-0.2,2.3-0.7c0.6-0.5,1-1,1.2-1.8
		h6.5c-0.3,1.4-0.8,2.7-1.7,3.8s-2,2-3.4,2.6s-2.9,1-4.6,1c-2,0-3.7-0.4-5.2-1.2c-1.5-0.8-2.7-2-3.6-3.6s-1.3-3.4-1.3-5.5
		s0.4-3.9,1.3-5.5s2-2.7,3.6-3.6s3.3-1.2,5.3-1.2s3.7,0.4,5.3,1.2c1.5,0.8,2.7,2,3.5,3.4c0.8,1.5,1.2,3.2,1.2,5.1
		C1455.9,2036.4,1455.8,2036.9,1455.7,2037.5z M1448.6,2031.9c-0.7-0.7-1.6-1-2.7-1s-2.1,0.3-2.8,1s-1.2,1.7-1.3,3h7.8
		C1449.7,2033.6,1449.3,2032.6,1448.6,2031.9z"/>
</g>
<g>
	<path class="st3" d="M1548.4,533v25.3h-6.2v-15.8l-5.5,15.8h-5.3l-5.5-15.8v15.8h-6.2V533h7.5l6.9,17.6l6.7-17.6H1548.4z"/>
	<path class="st3" d="M1564.3,538.9c1.1,0.7,1.9,1.6,2.4,2.8v-3.6h6.1v20.1h-6.1v-3.6c-0.5,1.2-1.3,2.1-2.4,2.8s-2.4,1-4,1
		c-1.7,0-3.1-0.4-4.4-1.2s-2.3-2-3.1-3.6c-0.8-1.6-1.1-3.4-1.1-5.5s0.4-3.9,1.1-5.5s1.8-2.7,3.1-3.6c1.3-0.8,2.8-1.2,4.4-1.2
		C1561.9,537.9,1563.2,538.2,1564.3,538.9z M1559.1,544.6c-0.8,0.9-1.2,2.1-1.2,3.6s0.4,2.7,1.2,3.6c0.8,0.9,1.9,1.3,3.2,1.3
		c1.3,0,2.4-0.4,3.2-1.3c0.8-0.9,1.2-2.1,1.2-3.6s-0.4-2.7-1.2-3.6s-1.9-1.3-3.2-1.3S1559.9,543.7,1559.1,544.6z"/>
	<path class="st3" d="M1583.3,531.6v26.6h-6.2v-26.6H1583.3z"/>
	<path class="st3" d="M1599.1,538.9c1.1,0.7,1.9,1.6,2.4,2.8v-3.6h6.1v20.1h-6.1v-3.6c-0.5,1.2-1.3,2.1-2.4,2.8s-2.4,1-4,1
		c-1.7,0-3.1-0.4-4.4-1.2s-2.3-2-3.1-3.6c-0.8-1.6-1.1-3.4-1.1-5.5s0.4-3.9,1.1-5.5s1.8-2.7,3.1-3.6c1.3-0.8,2.8-1.2,4.4-1.2
		C1596.7,537.9,1598,538.2,1599.1,538.9z M1593.9,544.6c-0.8,0.9-1.2,2.1-1.2,3.6s0.4,2.7,1.2,3.6c0.8,0.9,1.9,1.3,3.2,1.3
		c1.3,0,2.4-0.4,3.2-1.3c0.8-0.9,1.2-2.1,1.2-3.6s-0.4-2.7-1.2-3.6s-1.9-1.3-3.2-1.3S1594.7,543.7,1593.9,544.6z"/>
	<path class="st3" d="M1643.8,540.2c1.4,1.5,2.1,3.6,2.1,6.4v11.7h-6.1v-10.9c0-1.3-0.3-2.3-1-3s-1.6-1.1-2.8-1.1
		c-1.2,0-2.2,0.4-2.9,1.1c-0.7,0.8-1.1,1.8-1.1,3.2v10.7h-6.2v-10.9c0-1.3-0.3-2.3-1-3s-1.6-1.1-2.8-1.1c-1.2,0-2.2,0.4-2.9,1.1
		c-0.7,0.7-1.1,1.8-1.1,3.2v10.7h-6.2v-20.1h6.2v3.4c0.5-1.1,1.3-2,2.4-2.7s2.4-1,3.8-1c1.5,0,2.9,0.4,4.1,1.1
		c1.2,0.7,2.1,1.7,2.7,3c0.7-1.2,1.6-2.2,2.9-3c1.2-0.7,2.5-1.1,4-1.1C1640.4,537.9,1642.4,538.7,1643.8,540.2z"/>
	<path class="st3" d="M1667,539.1c1.3,0.8,2.3,2,3.1,3.6s1.1,3.4,1.1,5.5s-0.4,3.9-1.1,5.5c-0.8,1.6-1.8,2.8-3.1,3.6
		c-1.3,0.8-2.8,1.2-4.4,1.2c-1.5,0-2.9-0.3-4-1s-1.9-1.6-2.4-2.8v13.2h-6.2v-29.7h6.2v3.6c0.5-1.2,1.3-2.1,2.4-2.8s2.4-1,4-1
		C1664.2,537.9,1665.7,538.3,1667,539.1z M1657.4,544.6c-0.8,0.9-1.2,2.1-1.2,3.6s0.4,2.7,1.2,3.6c0.8,0.9,1.9,1.3,3.2,1.3
		c1.3,0,2.4-0.4,3.2-1.3c0.8-0.9,1.2-2.1,1.2-3.6s-0.4-2.7-1.2-3.6c-0.8-0.9-1.9-1.3-3.2-1.3S1658.2,543.7,1657.4,544.6z"/>
	<path class="st3" d="M1694.4,538.1v20.1h-6.2v-3.6c-0.6,1.2-1.4,2.1-2.6,2.8c-1.1,0.7-2.5,1-4,1c-2.3,0-4.1-0.8-5.5-2.3
		s-2-3.6-2-6.3v-11.7h6.1V549c0,1.4,0.4,2.4,1.1,3.2s1.7,1.1,2.9,1.1c1.2,0,2.2-0.4,3-1.2c0.7-0.8,1.1-1.9,1.1-3.4V538h6.1V538.1z"
		/>
	<path class="st3" d="M1704.1,553.1h9.3v5.1h-16v-4.9l8.6-10.1h-8.5v-5.1h15.5v4.9L1704.1,553.1z"/>
	<path class="st3" d="M1734.5,540.2c1.4,1.5,2,3.6,2,6.3v11.7h-6.2v-10.9c0-1.3-0.4-2.4-1.1-3.1s-1.7-1.1-2.8-1.1
		c-1.2,0-2.2,0.4-3,1.2c-0.7,0.8-1.1,1.9-1.1,3.4v10.7h-6.2v-26.6h6.2V542c0.6-1.2,1.4-2.1,2.6-2.8s2.5-1,4-1
		C1731.3,537.9,1733.2,538.7,1734.5,540.2z"/>
	<path class="st3" d="M1752.2,538.9c1.1,0.7,1.9,1.6,2.4,2.8v-3.6h6.1v20.1h-6.1v-3.6c-0.5,1.2-1.3,2.1-2.4,2.8s-2.4,1-4,1
		c-1.7,0-3.1-0.4-4.4-1.2s-2.3-2-3.1-3.6c-0.8-1.6-1.1-3.4-1.1-5.5s0.4-3.9,1.1-5.5s1.8-2.7,3.1-3.6c1.3-0.8,2.8-1.2,4.4-1.2
		C1749.8,537.9,1751.1,538.2,1752.2,538.9z M1747,544.6c-0.8,0.9-1.2,2.1-1.2,3.6s0.4,2.7,1.2,3.6c0.8,0.9,1.9,1.3,3.2,1.3
		c1.3,0,2.4-0.4,3.2-1.3c0.8-0.9,1.2-2.1,1.2-3.6s-0.4-2.7-1.2-3.6s-1.9-1.3-3.2-1.3S1747.8,543.7,1747,544.6z"/>
</g>
<g>
	<path class="st3" d="M1896.4,413v25.3h-6.2v-15.8l-5.5,15.8h-5.3l-5.5-15.8v15.8h-6.2V413h7.5l6.9,17.6l6.7-17.6H1896.4z"/>
	<path class="st3" d="M1912.3,418.9c1.1,0.7,1.9,1.6,2.4,2.8v-3.6h6.1v20.1h-6.1v-3.6c-0.5,1.2-1.3,2.1-2.4,2.8c-1.1,0.7-2.4,1-4,1
		c-1.7,0-3.1-0.4-4.4-1.2c-1.3-0.8-2.3-2-3.1-3.6c-0.8-1.6-1.1-3.4-1.1-5.5s0.4-3.9,1.1-5.5s1.8-2.7,3.1-3.6
		c1.3-0.8,2.8-1.2,4.4-1.2C1909.9,417.9,1911.2,418.2,1912.3,418.9z M1907.1,424.6c-0.8,0.9-1.2,2.1-1.2,3.6s0.4,2.7,1.2,3.6
		c0.8,0.9,1.9,1.3,3.2,1.3c1.3,0,2.4-0.4,3.2-1.3c0.8-0.9,1.2-2.1,1.2-3.6s-0.4-2.7-1.2-3.6s-1.9-1.3-3.2-1.3
		C1909,423.3,1907.9,423.7,1907.1,424.6z"/>
	<path class="st3" d="M1931.3,411.6v26.6h-6.2v-26.6H1931.3z"/>
	<path class="st3" d="M1947.1,418.9c1.1,0.7,1.9,1.6,2.4,2.8v-3.6h6.1v20.1h-6.1v-3.6c-0.5,1.2-1.3,2.1-2.4,2.8c-1.1,0.7-2.4,1-4,1
		c-1.7,0-3.1-0.4-4.4-1.2c-1.3-0.8-2.3-2-3.1-3.6c-0.8-1.6-1.1-3.4-1.1-5.5s0.4-3.9,1.1-5.5s1.8-2.7,3.1-3.6
		c1.3-0.8,2.8-1.2,4.4-1.2C1944.7,417.9,1946,418.2,1947.1,418.9z M1941.9,424.6c-0.8,0.9-1.2,2.1-1.2,3.6s0.4,2.7,1.2,3.6
		c0.8,0.9,1.9,1.3,3.2,1.3c1.3,0,2.4-0.4,3.2-1.3c0.8-0.9,1.2-2.1,1.2-3.6s-0.4-2.7-1.2-3.6s-1.9-1.3-3.2-1.3
		C1943.8,423.3,1942.7,423.7,1941.9,424.6z"/>
	<path class="st3" d="M1991.8,420.2c1.4,1.5,2.1,3.6,2.1,6.4v11.7h-6.1v-10.9c0-1.3-0.3-2.3-1-3s-1.6-1.1-2.8-1.1
		c-1.2,0-2.2,0.4-2.9,1.1c-0.7,0.8-1.1,1.8-1.1,3.2v10.7h-6.2v-10.9c0-1.3-0.3-2.3-1-3s-1.6-1.1-2.8-1.1c-1.2,0-2.2,0.4-2.9,1.1
		c-0.7,0.7-1.1,1.8-1.1,3.2v10.7h-6.2v-20.1h6.2v3.4c0.5-1.1,1.3-2,2.4-2.7s2.4-1,3.8-1c1.5,0,2.9,0.4,4.1,1.1s2.1,1.7,2.7,3
		c0.7-1.2,1.6-2.2,2.9-3c1.2-0.7,2.5-1.1,4-1.1C1988.4,417.9,1990.4,418.7,1991.8,420.2z"/>
	<path class="st3" d="M2015,419.1c1.3,0.8,2.3,2,3.1,3.6s1.1,3.4,1.1,5.5s-0.4,3.9-1.1,5.5c-0.8,1.6-1.8,2.8-3.1,3.6
		c-1.3,0.8-2.8,1.2-4.4,1.2c-1.5,0-2.9-0.3-4-1s-1.9-1.6-2.4-2.8v13.2h-6.2v-29.7h6.2v3.6c0.5-1.2,1.3-2.1,2.4-2.8
		c1.1-0.7,2.4-1,4-1C2012.2,417.9,2013.7,418.3,2015,419.1z M2005.4,424.6c-0.8,0.9-1.2,2.1-1.2,3.6s0.4,2.7,1.2,3.6
		c0.8,0.9,1.9,1.3,3.2,1.3c1.3,0,2.4-0.4,3.2-1.3c0.8-0.9,1.2-2.1,1.2-3.6s-0.4-2.7-1.2-3.6c-0.8-0.9-1.9-1.3-3.2-1.3
		C2007.3,423.3,2006.2,423.7,2005.4,424.6z"/>
	<path class="st3" d="M2042.4,418.1v20.1h-6.2v-3.6c-0.6,1.2-1.4,2.1-2.6,2.8c-1.1,0.7-2.5,1-4,1c-2.3,0-4.1-0.8-5.5-2.3
		s-2-3.6-2-6.3v-11.7h6.1V429c0,1.4,0.4,2.4,1.1,3.2s1.7,1.1,2.9,1.1c1.2,0,2.2-0.4,3-1.2c0.7-0.8,1.1-1.9,1.1-3.4V418h6.1V418.1z"
		/>
	<path class="st3" d="M2052.1,433.1h9.3v5.1h-16v-4.9l8.6-10.1h-8.5v-5.1h15.5v4.9L2052.1,433.1z"/>
	<path class="st3" d="M2082.5,420.2c1.4,1.5,2,3.6,2,6.3v11.7h-6.2v-10.9c0-1.3-0.4-2.4-1.1-3.1s-1.7-1.1-2.8-1.1
		c-1.2,0-2.2,0.4-3,1.2c-0.7,0.8-1.1,1.9-1.1,3.4v10.7h-6.2v-26.6h6.2V422c0.6-1.2,1.4-2.1,2.6-2.8s2.5-1,4-1
		C2079.3,417.9,2081.2,418.7,2082.5,420.2z"/>
	<path class="st3" d="M2100.2,418.9c1.1,0.7,1.9,1.6,2.4,2.8v-3.6h6.1v20.1h-6.1v-3.6c-0.5,1.2-1.3,2.1-2.4,2.8c-1.1,0.7-2.4,1-4,1
		c-1.7,0-3.1-0.4-4.4-1.2c-1.3-0.8-2.3-2-3.1-3.6s-1.1-3.4-1.1-5.5s0.4-3.9,1.1-5.5s1.8-2.7,3.1-3.6c1.3-0.8,2.8-1.2,4.4-1.2
		C2097.8,417.9,2099.1,418.2,2100.2,418.9z M2095,424.6c-0.8,0.9-1.2,2.1-1.2,3.6s0.4,2.7,1.2,3.6s1.9,1.3,3.2,1.3s2.4-0.4,3.2-1.3
		s1.2-2.1,1.2-3.6s-0.4-2.7-1.2-3.6s-1.9-1.3-3.2-1.3C2096.9,423.3,2095.8,423.7,2095,424.6z"/>
	<path class="st3" d="M1967.3,475.3c-1.1,1.9-2.6,3.4-4.6,4.5s-4.4,1.6-7.1,1.6h-9.6V456h9.6c2.7,0,5.1,0.5,7.1,1.6s3.5,2.5,4.6,4.5
		c1.1,1.9,1.6,4.1,1.6,6.6S1968.3,473.4,1967.3,475.3z M1960.7,474c1.3-1.3,2-3.1,2-5.4s-0.7-4.1-2-5.4s-3.2-1.9-5.6-1.9h-2.9v14.5
		h2.9C1957.5,475.9,1959.3,475.3,1960.7,474z"/>
	<path class="st3" d="M1984,462.1c1.1,0.7,1.9,1.6,2.4,2.8v-3.6h6.1v20.1h-6.1v-3.6c-0.5,1.2-1.3,2.1-2.4,2.8c-1.1,0.7-2.4,1-4,1
		c-1.7,0-3.1-0.4-4.4-1.2c-1.3-0.8-2.3-2-3.1-3.6c-0.8-1.6-1.1-3.4-1.1-5.5s0.4-3.9,1.1-5.5c0.8-1.5,1.8-2.7,3.1-3.6
		c1.3-0.8,2.8-1.2,4.4-1.2C1981.5,461.1,1982.9,461.4,1984,462.1z M1978.8,467.8c-0.8,0.9-1.2,2.1-1.2,3.6s0.4,2.7,1.2,3.6
		c0.8,0.9,1.9,1.3,3.2,1.3c1.3,0,2.4-0.4,3.2-1.3c0.8-0.9,1.2-2.1,1.2-3.6s-0.4-2.7-1.2-3.6c-0.8-0.9-1.9-1.3-3.2-1.3
		C1980.7,466.5,1979.6,466.9,1978.8,467.8z"/>
	<path class="st3" d="M2028.6,463.4c1.4,1.5,2.1,3.6,2.1,6.4v11.7h-6.1v-10.9c0-1.3-0.3-2.3-1-3s-1.6-1.1-2.8-1.1
		c-1.2,0-2.2,0.4-2.9,1.1s-1.1,1.8-1.1,3.2v10.7h-6.2v-10.9c0-1.3-0.3-2.3-1-3s-1.6-1.1-2.8-1.1c-1.2,0-2.2,0.4-2.9,1.1
		c-0.7,0.7-1.1,1.8-1.1,3.2v10.7h-6.2v-20.1h6.2v3.4c0.5-1.1,1.3-2,2.4-2.7c1.1-0.6,2.4-1,3.8-1c1.5,0,2.9,0.4,4.1,1.1
		s2.1,1.7,2.7,3c0.7-1.2,1.7-2.2,2.9-3c1.2-0.7,2.5-1.1,4-1.1C2025.3,461.1,2027.2,461.9,2028.6,463.4z"/>
</g>
<g>
	<path class="st3" d="M569.6,1960.3v8.9h-6.2v-25.5h10c3,0,5.3,0.8,6.9,2.3c1.6,1.5,2.4,3.5,2.4,6.1c0,1.6-0.4,3-1.1,4.2
		c-0.7,1.2-1.8,2.2-3.2,2.9c-1.4,0.7-3.1,1.1-5.1,1.1H569.6z M576.4,1952.1c0-2.2-1.2-3.3-3.7-3.3h-3.1v6.6h3.1
		C575.2,1955.4,576.4,1954.3,576.4,1952.1z"/>
	<path class="st3" d="M597.3,1949.9c1.1,0.7,1.9,1.6,2.4,2.8v-3.6h6.1v20.1h-6.1v-3.6c-0.5,1.2-1.3,2.1-2.4,2.8c-1.1,0.7-2.4,1-4,1
		c-1.7,0-3.1-0.4-4.4-1.2c-1.3-0.8-2.3-2-3.1-3.6s-1.1-3.4-1.1-5.5s0.4-3.9,1.1-5.5s1.8-2.7,3.1-3.6c1.3-0.8,2.8-1.2,4.4-1.2
		C594.9,1948.9,596.2,1949.2,597.3,1949.9z M592.2,1955.6c-0.8,0.9-1.2,2.1-1.2,3.6s0.4,2.7,1.2,3.6s1.9,1.3,3.2,1.3
		s2.4-0.4,3.2-1.3s1.2-2.1,1.2-3.6s-0.4-2.7-1.2-3.6s-1.9-1.3-3.2-1.3C594,1954.3,593,1954.7,592.2,1955.6z"/>
	<path class="st3" d="M616.3,1942.6v26.6h-6.2v-26.6H616.3z"/>
	<path class="st3" d="M632.1,1949.9c1.1,0.7,1.9,1.6,2.4,2.8v-3.6h6.1v20.1h-6.1v-3.6c-0.5,1.2-1.3,2.1-2.4,2.8c-1.1,0.7-2.4,1-4,1
		c-1.7,0-3.1-0.4-4.4-1.2c-1.3-0.8-2.3-2-3.1-3.6s-1.1-3.4-1.1-5.5s0.4-3.9,1.1-5.5c0.8-1.5,1.8-2.7,3.1-3.6
		c1.3-0.8,2.8-1.2,4.4-1.2C629.7,1948.9,631,1949.2,632.1,1949.9z M627,1955.6c-0.8,0.9-1.2,2.1-1.2,3.6s0.4,2.7,1.2,3.6
		s1.9,1.3,3.2,1.3s2.4-0.4,3.2-1.3s1.2-2.1,1.2-3.6s-0.4-2.7-1.2-3.6s-1.9-1.3-3.2-1.3C628.8,1954.3,627.8,1954.7,627,1955.6z"/>
	<path class="st3" d="M657.1,1969.2l-6-8.5v8.5H645v-26.6h6.2v14.6l6-8.1h7.2l-8.1,10l8.3,10L657.1,1969.2L657.1,1969.2z"/>
	<path class="st3" d="M678.9,1969.2l-6-8.5v8.5h-6.2v-26.6h6.2v14.6l6-8.1h7.2l-8.1,10l8.3,10L678.9,1969.2L678.9,1969.2z"/>
	<path class="st3" d="M700.2,1949.9c1.1,0.7,1.9,1.6,2.4,2.8v-3.6h6.1v20.1h-6.1v-3.6c-0.5,1.2-1.3,2.1-2.4,2.8c-1.1,0.7-2.4,1-4,1
		c-1.7,0-3.1-0.4-4.4-1.2c-1.3-0.8-2.3-2-3.1-3.6s-1.1-3.4-1.1-5.5s0.4-3.9,1.1-5.5c0.8-1.5,1.8-2.7,3.1-3.6
		c1.3-0.8,2.8-1.2,4.4-1.2C697.8,1948.9,699.1,1949.2,700.2,1949.9z M695,1955.6c-0.8,0.9-1.2,2.1-1.2,3.6s0.4,2.7,1.2,3.6
		s1.9,1.3,3.2,1.3s2.4-0.4,3.2-1.3s1.2-2.1,1.2-3.6s-0.4-2.7-1.2-3.6s-1.9-1.3-3.2-1.3C696.9,1954.3,695.8,1954.7,695,1955.6z"/>
	<path class="st3" d="M724.6,1949.9c1.1,0.7,1.9,1.6,2.4,2.8v-10.2h6.2v26.6H727v-3.6c-0.5,1.2-1.3,2.1-2.4,2.8c-1.1,0.7-2.4,1-4,1
		c-1.7,0-3.1-0.4-4.4-1.2c-1.3-0.8-2.3-2-3.1-3.6s-1.1-3.4-1.1-5.5s0.4-3.9,1.1-5.5s1.8-2.7,3.1-3.6c1.3-0.8,2.8-1.2,4.4-1.2
		C722.2,1948.9,723.5,1949.2,724.6,1949.9z M719.4,1955.6c-0.8,0.9-1.2,2.1-1.2,3.6s0.4,2.7,1.2,3.6s1.9,1.3,3.2,1.3
		s2.4-0.4,3.2-1.3s1.2-2.1,1.2-3.6s-0.4-2.7-1.2-3.6s-1.9-1.3-3.2-1.3C721.3,1954.3,720.2,1954.7,719.4,1955.6z"/>
</g>
<g>
	<path class="st3" d="M199.3,1689.1c2.1,1.7,3.5,4,4.1,6.9h-6.5c-0.5-1.2-1.2-2.1-2.2-2.8s-2.2-1-3.5-1c-1.8,0-3.3,0.7-4.4,2
		c-1.1,1.3-1.7,3.1-1.7,5.3c0,2.2,0.6,4,1.7,5.3c1.1,1.3,2.6,2,4.4,2c1.4,0,2.5-0.3,3.5-1s1.7-1.6,2.2-2.7h6.5
		c-0.6,2.9-2,5.2-4.1,6.9c-2.1,1.7-4.8,2.6-8,2.6c-2.5,0-4.6-0.5-6.5-1.6s-3.3-2.6-4.3-4.6s-1.5-4.2-1.5-6.7s0.5-4.8,1.5-6.7
		s2.5-3.5,4.3-4.6c1.9-1.1,4-1.6,6.5-1.6C194.5,1686.5,197.2,1687.4,199.3,1689.1z"/>
	<path class="st3" d="M218.5,1692.9c1.1,0.7,1.9,1.6,2.4,2.8v-3.6h6.1v20.1h-6.1v-3.6c-0.5,1.2-1.3,2.1-2.4,2.8c-1.1,0.7-2.4,1-4,1
		c-1.7,0-3.1-0.4-4.4-1.2c-1.3-0.8-2.3-2-3.1-3.6s-1.1-3.4-1.1-5.5s0.4-3.9,1.1-5.5c0.8-1.5,1.8-2.7,3.1-3.6
		c1.3-0.8,2.8-1.2,4.4-1.2C216,1691.9,217.3,1692.2,218.5,1692.9z M213.3,1698.6c-0.8,0.9-1.2,2.1-1.2,3.6s0.4,2.7,1.2,3.6
		s1.9,1.3,3.2,1.3s2.4-0.4,3.2-1.3s1.2-2.1,1.2-3.6s-0.4-2.7-1.2-3.6s-1.9-1.3-3.2-1.3C215.2,1697.3,214.1,1697.7,213.3,1698.6z"/>
	<path class="st3" d="M237.4,1685.6v26.6h-6.2v-26.6H237.4z"/>
	<path class="st3" d="M242.1,1684.2c0.7-0.6,1.6-0.9,2.7-0.9c1.1,0,2,0.3,2.7,0.9s1,1.4,1,2.3s-0.3,1.7-1,2.3s-1.6,0.9-2.7,0.9
		c-1.1,0-2-0.3-2.7-0.9s-1-1.4-1-2.3S241.4,1684.8,242.1,1684.2z M247.8,1692.1v20.1h-6.2v-20.1H247.8z"/>
	<path class="st3" d="M267.7,1694c1.8,1.4,2.9,3.4,3.3,5.9h-6.5c-0.2-0.9-0.6-1.5-1.2-2s-1.4-0.7-2.3-0.7c-1.1,0-2,0.4-2.7,1.3
		s-1,2.1-1,3.7s0.3,2.9,1,3.7c0.7,0.9,1.6,1.3,2.7,1.3c0.9,0,1.7-0.2,2.3-0.7c0.6-0.5,1-1.2,1.2-2h6.5c-0.5,2.5-1.6,4.5-3.3,5.9
		s-3.9,2.1-6.5,2.1c-2,0-3.7-0.4-5.2-1.2s-2.7-2-3.6-3.6c-0.9-1.6-1.3-3.4-1.3-5.5s0.4-3.9,1.3-5.5c0.9-1.5,2-2.7,3.6-3.6
		c1.5-0.8,3.3-1.2,5.3-1.2C263.7,1691.9,265.9,1692.6,267.7,1694z"/>
	<path class="st3" d="M294.2,1692.1v20.1H288v-3.6c-0.6,1.2-1.4,2.1-2.6,2.8c-1.1,0.7-2.5,1-4,1c-2.3,0-4.1-0.8-5.5-2.3
		s-2-3.6-2-6.3v-11.7h6.1v10.9c0,1.4,0.4,2.4,1.1,3.2s1.7,1.1,2.9,1.1c1.2,0,2.2-0.4,3-1.2c0.7-0.8,1.1-1.9,1.1-3.4V1692
		L294.2,1692.1L294.2,1692.1z"/>
	<path class="st3" d="M309.8,1706.9v5.3H307c-2.4,0-4.2-0.6-5.5-1.7c-1.3-1.2-2-3.1-2-5.8v-7.4h-2.7v-5.2h2.7v-4.9h6.2v4.9h4v5.2h-4
		v7.5c0,0.8,0.2,1.3,0.5,1.7s0.9,0.5,1.6,0.5L309.8,1706.9L309.8,1706.9z"/>
</g>
<g>
	<path class="st3" d="M18,1292.8c-0.7,1.1-1.7,2-3,2.7s-2.9,1-4.8,1c-2.9,0-5.2-0.7-7.1-2.1c-1.8-1.4-2.9-3.3-3-5.8h6.6
		c0.1,1,0.4,1.7,1,2.3c0.6,0.6,1.3,0.8,2.3,0.8c0.8,0,1.4-0.2,1.9-0.6s0.7-1,0.7-1.7c0-0.6-0.2-1.2-0.6-1.6
		c-0.4-0.4-0.9-0.8-1.6-1.1c-0.6-0.3-1.5-0.6-2.6-1c-1.6-0.6-2.9-1.1-3.9-1.6s-1.9-1.3-2.6-2.3s-1.1-2.3-1.1-4
		c0-1.5,0.4-2.8,1.2-3.9s1.8-2,3.2-2.5c1.4-0.6,2.9-0.9,4.7-0.9c2.8,0,5.1,0.7,6.8,2c1.7,1.3,2.6,3.2,2.8,5.5h-6.7
		c-0.1-0.8-0.4-1.5-0.9-2s-1.2-0.7-2-0.7c-0.7,0-1.3,0.2-1.7,0.6c-0.4,0.4-0.7,0.9-0.7,1.7c0,0.6,0.2,1.1,0.6,1.5s0.9,0.8,1.5,1
		c0.6,0.3,1.5,0.6,2.6,1c1.6,0.6,3,1.1,4,1.6s1.9,1.3,2.7,2.4c0.7,1,1.1,2.4,1.1,4C19,1290.4,18.7,1291.7,18,1292.8z"/>
	<path class="st3" d="M40.7,1278.2c1.4,1.5,2,3.6,2,6.3v11.7h-6.2v-10.9c0-1.3-0.4-2.4-1.1-3.1s-1.7-1.1-2.8-1.1
		c-1.2,0-2.2,0.4-3,1.2c-0.7,0.8-1.1,1.9-1.1,3.4v10.7h-6.2v-26.6h6.2v10.2c0.6-1.2,1.4-2.1,2.6-2.8c1.2-0.7,2.5-1,4-1
		C37.5,1275.9,39.3,1276.7,40.7,1278.2z"/>
	<path class="st3" d="M61.5,1277.1c1.6,0.8,2.8,2,3.7,3.6c0.9,1.6,1.3,3.4,1.3,5.5s-0.4,3.9-1.3,5.5s-2.1,2.8-3.7,3.6
		c-1.6,0.8-3.4,1.2-5.3,1.2c-2,0-3.8-0.4-5.4-1.2s-2.8-2-3.7-3.6s-1.4-3.4-1.4-5.5s0.5-3.9,1.4-5.5s2.1-2.8,3.7-3.6s3.4-1.2,5.4-1.2
		C58.2,1275.9,60,1276.3,61.5,1277.1z M53.2,1282.5c-0.8,0.9-1.2,2.1-1.2,3.7s0.4,2.8,1.2,3.7c0.8,0.8,1.8,1.3,3,1.3s2.2-0.4,3-1.3
		c0.8-0.8,1.2-2.1,1.2-3.7s-0.4-2.8-1.2-3.7c-0.8-0.9-1.8-1.3-3-1.3S54,1281.6,53.2,1282.5z"/>
	<path class="st3" d="M78.9,1277c1.2-0.7,2.5-1.1,3.9-1.1v6.6H81c-1.6,0-2.9,0.3-3.8,1s-1.3,1.9-1.3,3.5v9.1h-6.2V1276H76v3.8
		C76.7,1278.7,77.7,1277.7,78.9,1277z"/>
	<path class="st3" d="M97.1,1276.9c1.1,0.7,1.9,1.6,2.4,2.8v-3.6h6.1v20.1h-6.1v-3.6c-0.5,1.2-1.3,2.1-2.4,2.8c-1.1,0.7-2.4,1-4,1
		c-1.7,0-3.1-0.4-4.4-1.2c-1.3-0.8-2.3-2-3.1-3.6c-0.8-1.6-1.1-3.4-1.1-5.5s0.4-3.9,1.1-5.5c0.8-1.5,1.8-2.7,3.1-3.6
		c1.3-0.8,2.8-1.2,4.4-1.2C94.6,1275.9,96,1276.2,97.1,1276.9z M91.9,1282.6c-0.8,0.9-1.2,2.1-1.2,3.6s0.4,2.7,1.2,3.6
		c0.8,0.9,1.9,1.3,3.2,1.3c1.3,0,2.4-0.4,3.2-1.3c0.8-0.9,1.2-2.1,1.2-3.6s-0.4-2.7-1.2-3.6c-0.8-0.9-1.9-1.3-3.2-1.3
		C93.8,1281.3,92.7,1281.7,91.9,1282.6z"/>
	<path class="st3" d="M128.1,1278.2c1.4,1.5,2,3.6,2,6.3v11.7H124v-10.9c0-1.3-0.4-2.4-1.1-3.1s-1.7-1.1-2.8-1.1
		c-1.2,0-2.2,0.4-3,1.2c-0.7,0.8-1.1,1.9-1.1,3.4v10.7h-6.2v-20.1h6.2v3.7c0.6-1.2,1.4-2.1,2.6-2.8s2.5-1,4-1
		C124.9,1275.9,126.7,1276.7,128.1,1278.2z"/>
	<path class="st3" d="M154.2,1276.1v20.1H148v-3.6c-0.6,1.2-1.4,2.1-2.6,2.8c-1.1,0.7-2.5,1-4,1c-2.3,0-4.1-0.8-5.5-2.3
		s-2-3.6-2-6.3v-11.7h6.1v10.9c0,1.4,0.4,2.4,1.1,3.2c0.7,0.8,1.7,1.1,2.9,1.1s2.2-0.4,3-1.2s1.1-1.9,1.1-3.4V1276L154.2,1276.1
		L154.2,1276.1z"/>
	<path class="st3" d="M167.6,1277c1.2-0.7,2.5-1.1,3.9-1.1v6.6h-1.8c-1.6,0-2.9,0.3-3.8,1c-0.9,0.7-1.4,1.9-1.4,3.5v9.1h-6.2V1276
		h6.2v3.8C165.4,1278.7,166.3,1277.7,167.6,1277z"/>
</g>
<g>
	<path class="st3" d="M1614.4,1273.1c2.1,1.7,3.5,4,4.1,6.9h-6.5c-0.5-1.2-1.2-2.1-2.2-2.8s-2.2-1-3.5-1c-1.8,0-3.3,0.7-4.4,2
		s-1.7,3.1-1.7,5.3c0,2.2,0.6,4,1.7,5.3s2.6,2,4.4,2c1.4,0,2.5-0.3,3.5-1s1.7-1.6,2.2-2.7h6.5c-0.6,2.9-2,5.2-4.1,6.9
		c-2.1,1.7-4.8,2.6-8,2.6c-2.5,0-4.6-0.5-6.5-1.6s-3.3-2.6-4.3-4.6s-1.5-4.2-1.5-6.7s0.5-4.8,1.5-6.7s2.5-3.5,4.3-4.6
		c1.9-1.1,4-1.6,6.5-1.6C1609.6,1270.5,1612.3,1271.4,1614.4,1273.1z"/>
	<path class="st3" d="M1636.7,1277.1c1.6,0.8,2.8,2,3.7,3.6c0.9,1.6,1.3,3.4,1.3,5.5s-0.4,3.9-1.3,5.5s-2.1,2.8-3.7,3.6
		c-1.6,0.8-3.4,1.2-5.3,1.2c-2,0-3.8-0.4-5.4-1.2s-2.8-2-3.7-3.6c-0.9-1.6-1.4-3.4-1.4-5.5s0.5-3.9,1.4-5.5s2.1-2.8,3.7-3.6
		s3.4-1.2,5.4-1.2C1633.4,1275.9,1635.2,1276.3,1636.7,1277.1z M1628.4,1282.5c-0.8,0.9-1.2,2.1-1.2,3.7s0.4,2.8,1.2,3.7
		c0.8,0.8,1.8,1.3,3,1.3s2.2-0.4,3-1.3c0.8-0.8,1.2-2.1,1.2-3.7s-0.4-2.8-1.2-3.7c-0.8-0.9-1.8-1.3-3-1.3
		C1630.2,1281.2,1629.2,1281.6,1628.4,1282.5z"/>
	<path class="st3" d="M1645.4,1268.2c0.7-0.6,1.6-0.9,2.7-0.9s2,0.3,2.7,0.9s1,1.4,1,2.3s-0.3,1.7-1,2.3s-1.6,0.9-2.7,0.9
		s-2-0.3-2.7-0.9s-1-1.4-1-2.3S1644.8,1268.8,1645.4,1268.2z M1651.2,1276.1v20.1h-6.2v-20.1H1651.2z"/>
	<path class="st3" d="M1687.3,1278.2c1.4,1.5,2.1,3.6,2.1,6.4v11.7h-6.1v-10.9c0-1.3-0.3-2.3-1-3s-1.6-1.1-2.8-1.1
		c-1.2,0-2.2,0.4-2.9,1.1c-0.7,0.8-1.1,1.8-1.1,3.2v10.7h-6.2v-10.9c0-1.3-0.3-2.3-1-3s-1.6-1.1-2.8-1.1c-1.2,0-2.2,0.4-2.9,1.1
		c-0.7,0.7-1.1,1.8-1.1,3.2v10.7h-6.2v-20.1h6.2v3.4c0.5-1.1,1.3-2,2.4-2.7s2.4-1,3.8-1c1.5,0,2.9,0.4,4.1,1.1s2.1,1.7,2.7,3
		c0.7-1.2,1.6-2.2,2.9-3c1.2-0.7,2.5-1.1,4-1.1C1683.9,1275.9,1685.9,1276.7,1687.3,1278.2z"/>
	<path class="st3" d="M1710.5,1277.1c1.3,0.8,2.3,2,3.1,3.6s1.1,3.4,1.1,5.5s-0.4,3.9-1.1,5.5c-0.8,1.6-1.8,2.8-3.1,3.6
		c-1.3,0.8-2.8,1.2-4.4,1.2c-1.5,0-2.9-0.3-4-1s-1.9-1.6-2.4-2.8v3.6h-6.2v-26.6h6.2v10.2c0.5-1.2,1.3-2.1,2.4-2.8
		c1.1-0.7,2.4-1,4-1C1707.7,1275.9,1709.2,1276.3,1710.5,1277.1z M1700.9,1282.6c-0.8,0.9-1.2,2.1-1.2,3.6s0.4,2.7,1.2,3.6
		c0.8,0.9,1.9,1.3,3.2,1.3c1.3,0,2.4-0.4,3.2-1.3c0.8-0.9,1.2-2.1,1.2-3.6s-0.4-2.7-1.2-3.6c-0.8-0.9-1.9-1.3-3.2-1.3
		C1702.8,1281.3,1701.7,1281.7,1700.9,1282.6z"/>
	<path class="st3" d="M1729.5,1276.9c1.1,0.7,1.9,1.6,2.4,2.8v-3.6h6.1v20.1h-6.1v-3.6c-0.5,1.2-1.3,2.1-2.4,2.8c-1.1,0.7-2.4,1-4,1
		c-1.7,0-3.1-0.4-4.4-1.2c-1.3-0.8-2.3-2-3.1-3.6c-0.8-1.6-1.1-3.4-1.1-5.5s0.4-3.9,1.1-5.5c0.8-1.5,1.8-2.7,3.1-3.6
		c1.3-0.8,2.8-1.2,4.4-1.2C1727.1,1275.9,1728.4,1276.2,1729.5,1276.9z M1724.3,1282.6c-0.8,0.9-1.2,2.1-1.2,3.6s0.4,2.7,1.2,3.6
		c0.8,0.9,1.9,1.3,3.2,1.3c1.3,0,2.4-0.4,3.2-1.3c0.8-0.9,1.2-2.1,1.2-3.6s-0.4-2.7-1.2-3.6c-0.8-0.9-1.9-1.3-3.2-1.3
		C1726.2,1281.3,1725.1,1281.7,1724.3,1282.6z"/>
	<path class="st3" d="M1753.7,1290.9v5.3h-2.8c-2.4,0-4.2-0.6-5.5-1.7c-1.3-1.2-2-3.1-2-5.8v-7.4h-2.7v-5.2h2.7v-4.9h6.2v4.9h4v5.2
		h-4v7.5c0,0.8,0.2,1.3,0.5,1.7s0.9,0.5,1.6,0.5L1753.7,1290.9L1753.7,1290.9z"/>
	<path class="st3" d="M1771.9,1277.1c1.6,0.8,2.8,2,3.7,3.6c0.9,1.6,1.3,3.4,1.3,5.5s-0.4,3.9-1.3,5.5s-2.1,2.8-3.7,3.6
		c-1.6,0.8-3.4,1.2-5.3,1.2c-2,0-3.8-0.4-5.4-1.2s-2.8-2-3.7-3.6c-0.9-1.6-1.4-3.4-1.4-5.5s0.5-3.9,1.4-5.5s2.1-2.8,3.7-3.6
		s3.4-1.2,5.4-1.2C1768.5,1275.9,1770.3,1276.3,1771.9,1277.1z M1763.6,1282.5c-0.8,0.9-1.2,2.1-1.2,3.7s0.4,2.8,1.2,3.7
		c0.8,0.8,1.8,1.3,3,1.3s2.2-0.4,3-1.3c0.8-0.8,1.2-2.1,1.2-3.7s-0.4-2.8-1.2-3.7c-0.8-0.9-1.8-1.3-3-1.3
		S1764.4,1281.6,1763.6,1282.5z"/>
	<path class="st3" d="M1789.3,1277c1.2-0.7,2.5-1.1,3.9-1.1v6.6h-1.8c-1.6,0-2.9,0.3-3.8,1s-1.4,1.9-1.4,3.5v9.1h-6.2V1276h6.2v3.8
		C1787.1,1278.7,1788.1,1277.7,1789.3,1277z"/>
	<path class="st3" d="M1814.7,1287.3h-13.9c0.1,1.5,0.5,2.6,1.2,3.3c0.7,0.7,1.6,1,2.7,1c0.9,0,1.7-0.2,2.3-0.7c0.6-0.5,1-1,1.2-1.8
		h6.5c-0.3,1.4-0.8,2.7-1.7,3.8s-2,2-3.4,2.6s-2.9,1-4.6,1c-2,0-3.7-0.4-5.2-1.2c-1.5-0.8-2.7-2-3.6-3.6s-1.3-3.4-1.3-5.5
		s0.4-3.9,1.3-5.5s2-2.7,3.6-3.6s3.3-1.2,5.3-1.2s3.7,0.4,5.3,1.2c1.5,0.8,2.7,2,3.5,3.4c0.8,1.5,1.2,3.2,1.2,5.1
		C1814.9,1286.2,1814.8,1286.7,1814.7,1287.3z M1807.6,1281.7c-0.7-0.7-1.6-1-2.7-1s-2.1,0.3-2.8,1s-1.2,1.7-1.3,3h7.8
		C1808.7,1283.4,1808.3,1282.4,1807.6,1281.7z"/>
</g>
<g>
	<path class="st3" d="M447.6,1367.8v17.4c0,2.7-0.7,4.7-2.2,6.2c-1.5,1.4-3.5,2.2-6,2.2c-2.8,0-5-0.8-6.6-2.4s-2.4-3.8-2.4-6.8h6.1
		c0,2.4,0.9,3.6,2.7,3.6c1.6,0,2.3-0.9,2.3-2.7v-17.4L447.6,1367.8L447.6,1367.8z"/>
	<path class="st3" d="M471.7,1373.1v20.1h-6.2v-3.6c-0.6,1.2-1.4,2.1-2.6,2.8c-1.1,0.7-2.5,1-4,1c-2.3,0-4.1-0.8-5.5-2.3
		s-2-3.6-2-6.3v-11.7h6.1v10.9c0,1.4,0.4,2.4,1.1,3.2c0.7,0.8,1.7,1.1,2.9,1.1c1.2,0,2.2-0.4,3-1.2s1.1-1.9,1.1-3.4V1373
		L471.7,1373.1L471.7,1373.1z"/>
	<path class="st3" d="M494.1,1375.2c1.4,1.5,2,3.6,2,6.3v11.7H490v-10.9c0-1.3-0.4-2.4-1.1-3.1s-1.7-1.1-2.8-1.1
		c-1.2,0-2.2,0.4-3,1.2s-1.1,1.9-1.1,3.4v10.7h-6.2v-20.1h6.2v3.7c0.6-1.2,1.4-2.1,2.6-2.8c1.1-0.7,2.5-1,4-1
		C491,1372.9,492.8,1373.7,494.1,1375.2z"/>
	<path class="st3" d="M515.8,1375c1.8,1.4,2.9,3.4,3.3,5.9h-6.5c-0.2-0.9-0.6-1.5-1.2-2s-1.4-0.7-2.3-0.7c-1.1,0-2,0.4-2.7,1.3
		s-1,2.1-1,3.7s0.3,2.9,1,3.7c0.7,0.9,1.6,1.3,2.7,1.3c0.9,0,1.7-0.2,2.3-0.7c0.6-0.5,1-1.2,1.2-2h6.5c-0.5,2.5-1.6,4.5-3.3,5.9
		s-3.9,2.1-6.5,2.1c-2,0-3.7-0.4-5.2-1.2s-2.7-2-3.6-3.6s-1.3-3.4-1.3-5.5s0.4-3.9,1.3-5.5c0.9-1.5,2-2.7,3.6-3.6
		c1.5-0.8,3.3-1.2,5.3-1.2C511.9,1372.9,514.1,1373.6,515.8,1375z"/>
	<path class="st3" d="M533.7,1387.9v5.3H531c-2.4,0-4.2-0.6-5.5-1.7c-1.3-1.2-2-3.1-2-5.8v-7.4h-2.7v-5.2h2.7v-4.9h6.2v4.9h4v5.2h-4
		v7.5c0,0.8,0.2,1.3,0.5,1.7s0.9,0.5,1.6,0.5L533.7,1387.9L533.7,1387.9z"/>
	<path class="st3" d="M537.6,1365.2c0.7-0.6,1.6-0.9,2.7-0.9c1.1,0,2,0.3,2.7,0.9s1,1.4,1,2.3s-0.3,1.7-1,2.3s-1.6,0.9-2.7,0.9
		c-1.1,0-2-0.3-2.7-0.9s-1-1.4-1-2.3S536.9,1365.8,537.6,1365.2z M543.3,1373.1v20.1h-6.2v-20.1H543.3z"/>
	<path class="st3" d="M562.3,1374.1c1.6,0.8,2.8,2,3.7,3.6s1.3,3.4,1.3,5.5s-0.4,3.9-1.3,5.5c-0.9,1.6-2.1,2.8-3.7,3.6
		c-1.6,0.8-3.4,1.2-5.3,1.2c-2,0-3.8-0.4-5.4-1.2s-2.8-2-3.7-3.6s-1.4-3.4-1.4-5.5s0.5-3.9,1.4-5.5s2.1-2.8,3.7-3.6s3.4-1.2,5.4-1.2
		S560.8,1373.3,562.3,1374.1z M554,1379.5c-0.8,0.9-1.2,2.1-1.2,3.7s0.4,2.8,1.2,3.7c0.8,0.8,1.8,1.3,3,1.3s2.2-0.4,3-1.3
		c0.8-0.8,1.2-2.1,1.2-3.7s-0.4-2.8-1.2-3.7c-0.8-0.9-1.8-1.3-3-1.3S554.8,1378.6,554,1379.5z"/>
	<path class="st3" d="M588.8,1375.2c1.4,1.5,2,3.6,2,6.3v11.7h-6.2v-10.9c0-1.3-0.4-2.4-1.1-3.1s-1.7-1.1-2.8-1.1
		c-1.2,0-2.2,0.4-3,1.2s-1.1,1.9-1.1,3.4v10.7h-6.2v-20.1h6.2v3.7c0.6-1.2,1.4-2.1,2.6-2.8c1.1-0.7,2.5-1,4-1
		C585.6,1372.9,587.5,1373.7,588.8,1375.2z"/>
	<path class="st3" d="M457.4,1436.4l-5.5-9.6h-1.4v9.6h-6.2V1411h10.5c2,0,3.7,0.3,5.1,1s2.4,1.7,3.1,2.9c0.7,1.2,1,2.6,1,4.2
		c0,1.8-0.5,3.4-1.5,4.7c-1,1.3-2.5,2.2-4.4,2.7l6,10L457.4,1436.4L457.4,1436.4z M450.5,1422.6h3.8c1.2,0,2.1-0.3,2.7-0.8
		s0.9-1.3,0.9-2.4c0-1-0.3-1.8-0.9-2.4s-1.5-0.9-2.7-0.9h-3.8V1422.6z"/>
	<path class="st3" d="M478.9,1417.1c1.1,0.7,1.9,1.6,2.4,2.8v-3.6h6.1v20.1h-6.1v-3.6c-0.5,1.2-1.3,2.1-2.4,2.8c-1.1,0.7-2.4,1-4,1
		c-1.7,0-3.1-0.4-4.4-1.2c-1.3-0.8-2.3-2-3.1-3.6c-0.8-1.6-1.1-3.4-1.1-5.5s0.4-3.9,1.1-5.5s1.8-2.7,3.1-3.6
		c1.3-0.8,2.8-1.2,4.4-1.2C476.4,1416.1,477.8,1416.4,478.9,1417.1z M473.7,1422.8c-0.8,0.9-1.2,2.1-1.2,3.6s0.4,2.7,1.2,3.6
		c0.8,0.9,1.9,1.3,3.2,1.3c1.3,0,2.4-0.4,3.2-1.3c0.8-0.9,1.2-2.1,1.2-3.6s-0.4-2.7-1.2-3.6s-1.9-1.3-3.2-1.3
		S474.5,1421.9,473.7,1422.8z"/>
	<path class="st3" d="M492.1,1408.4c0.7-0.6,1.6-0.9,2.7-0.9s2,0.3,2.7,0.9s1,1.4,1,2.3s-0.3,1.7-1,2.3s-1.6,0.9-2.7,0.9
		s-2-0.3-2.7-0.9s-1-1.4-1-2.3S491.4,1409,492.1,1408.4z M497.8,1416.3v20.1h-6.2v-20.1H497.8z"/>
	<path class="st3" d="M508.2,1409.8v26.6H502v-26.6H508.2z"/>
	<path class="st3" d="M521.8,1430.4l4.4-14.1h6.6l-7.1,20.1h-7.6l-7.1-20.1h6.6L521.8,1430.4z"/>
	<path class="st3" d="M546.8,1417.1c1.1,0.7,1.9,1.6,2.4,2.8v-3.6h6.1v20.1h-6.1v-3.6c-0.5,1.2-1.3,2.1-2.4,2.8c-1.1,0.7-2.4,1-4,1
		c-1.7,0-3.1-0.4-4.4-1.2c-1.3-0.8-2.3-2-3.1-3.6s-1.1-3.4-1.1-5.5s0.4-3.9,1.1-5.5c0.8-1.5,1.8-2.7,3.1-3.6
		c1.3-0.8,2.8-1.2,4.4-1.2C544.4,1416.1,545.7,1416.4,546.8,1417.1z M541.7,1422.8c-0.8,0.9-1.2,2.1-1.2,3.6s0.4,2.7,1.2,3.6
		s1.9,1.3,3.2,1.3s2.4-0.4,3.2-1.3s1.2-2.1,1.2-3.6s-0.4-2.7-1.2-3.6s-1.9-1.3-3.2-1.3C543.5,1421.5,542.5,1421.9,541.7,1422.8z"/>
	<path class="st3" d="M564.3,1416.3l4.8,12.3l4.5-12.3h6.8l-12.5,29.7h-6.8l4.7-10.3l-8.4-19.3L564.3,1416.3L564.3,1416.3z"/>
	<path class="st3" d="M463.9,1476.2c-0.7,1.1-1.7,2-3,2.7s-2.9,1-4.8,1c-2.9,0-5.2-0.7-7.1-2.1c-1.8-1.4-2.9-3.3-3-5.8h6.6
		c0.1,1,0.4,1.7,1,2.3c0.6,0.6,1.3,0.8,2.3,0.8c0.8,0,1.4-0.2,1.9-0.6s0.7-1,0.7-1.7c0-0.6-0.2-1.2-0.6-1.6s-0.9-0.8-1.6-1.1
		c-0.6-0.3-1.5-0.6-2.6-1c-1.6-0.6-2.9-1.1-3.9-1.6s-1.9-1.3-2.6-2.3s-1.1-2.3-1.1-4c0-1.5,0.4-2.8,1.2-3.9c0.8-1.1,1.8-2,3.2-2.5
		c1.4-0.6,2.9-0.9,4.7-0.9c2.8,0,5.1,0.7,6.8,2c1.7,1.3,2.6,3.2,2.8,5.5h-6.7c-0.1-0.8-0.4-1.5-0.9-2s-1.2-0.7-2-0.7
		c-0.7,0-1.3,0.2-1.7,0.6c-0.4,0.4-0.7,0.9-0.7,1.7c0,0.6,0.2,1.1,0.6,1.5s0.9,0.8,1.5,1c0.6,0.3,1.5,0.6,2.6,1c1.6,0.6,3,1.1,4,1.6
		s1.9,1.3,2.7,2.4c0.7,1,1.1,2.4,1.1,4C465,1473.8,464.6,1475.1,463.9,1476.2z"/>
	<path class="st3" d="M479.7,1474.3v5.3H477c-2.4,0-4.2-0.6-5.5-1.7c-1.3-1.2-2-3.1-2-5.8v-7.4h-2.7v-5.2h2.7v-4.9h6.2v4.9h4v5.2h-4
		v7.5c0,0.8,0.2,1.3,0.5,1.7c0.3,0.3,0.9,0.5,1.6,0.5L479.7,1474.3L479.7,1474.3z"/>
	<path class="st3" d="M494.8,1460.3c1.1,0.7,1.9,1.6,2.4,2.8v-3.6h6.1v20.1h-6.1v-3.6c-0.5,1.2-1.3,2.1-2.4,2.8c-1.1,0.7-2.4,1-4,1
		c-1.7,0-3.1-0.4-4.4-1.2c-1.3-0.8-2.3-2-3.1-3.6c-0.8-1.6-1.1-3.4-1.1-5.5s0.4-3.9,1.1-5.5s1.8-2.7,3.1-3.6
		c1.3-0.8,2.8-1.2,4.4-1.2C492.4,1459.3,493.7,1459.6,494.8,1460.3z M489.6,1466c-0.8,0.9-1.2,2.1-1.2,3.6s0.4,2.7,1.2,3.6
		c0.8,0.9,1.9,1.3,3.2,1.3c1.3,0,2.4-0.4,3.2-1.3c0.8-0.9,1.2-2.1,1.2-3.6s-0.4-2.7-1.2-3.6s-1.9-1.3-3.2-1.3
		S490.4,1465.1,489.6,1466z"/>
	<path class="st3" d="M519,1474.3v5.3h-2.8c-2.4,0-4.2-0.6-5.5-1.7c-1.3-1.2-2-3.1-2-5.8v-7.4H506v-5.2h2.7v-4.9h6.2v4.9h4v5.2h-4
		v7.5c0,0.8,0.2,1.3,0.5,1.7c0.3,0.3,0.9,0.5,1.6,0.5L519,1474.3L519,1474.3z"/>
	<path class="st3" d="M522.9,1451.6c0.7-0.6,1.6-0.9,2.7-0.9c1.1,0,2,0.3,2.7,0.9s1,1.4,1,2.3s-0.3,1.7-1,2.3s-1.6,0.9-2.7,0.9
		c-1.1,0-2-0.3-2.7-0.9s-1-1.4-1-2.3S522.2,1452.2,522.9,1451.6z M528.6,1459.5v20.1h-6.2v-20.1H528.6z"/>
	<path class="st3" d="M547.6,1460.5c1.6,0.8,2.8,2,3.7,3.6s1.3,3.4,1.3,5.5s-0.5,3.9-1.3,5.5c-0.9,1.6-2.1,2.8-3.7,3.6
		c-1.6,0.8-3.4,1.2-5.3,1.2s-3.8-0.4-5.4-1.2c-1.6-0.8-2.8-2-3.7-3.6s-1.3-3.4-1.3-5.5s0.4-3.9,1.3-5.5c0.9-1.6,2.1-2.8,3.7-3.6
		c1.6-0.8,3.4-1.2,5.4-1.2S546,1459.7,547.6,1460.5z M539.3,1465.9c-0.8,0.9-1.2,2.1-1.2,3.7s0.4,2.8,1.2,3.7c0.8,0.8,1.8,1.3,3,1.3
		s2.2-0.4,3-1.3c0.8-0.8,1.2-2.1,1.2-3.7s-0.4-2.8-1.2-3.7c-0.8-0.9-1.8-1.3-3-1.3S540.1,1465,539.3,1465.9z"/>
	<path class="st3" d="M574.1,1461.6c1.4,1.5,2,3.6,2,6.3v11.7H570v-10.9c0-1.3-0.4-2.4-1.1-3.1s-1.7-1.1-2.8-1.1
		c-1.2,0-2.2,0.4-3,1.2c-0.7,0.8-1.1,1.9-1.1,3.4v10.7h-6.2v-20.1h6.2v3.7c0.6-1.2,1.4-2.1,2.6-2.8s2.5-1,4-1
		C570.9,1459.3,572.7,1460.1,574.1,1461.6z"/>
</g>
<g>
	<path class="st3" d="M1147.9,1675.8c-0.7,1.1-1.7,2-3,2.7s-2.9,1-4.8,1c-2.9,0-5.2-0.7-7.1-2.1c-1.8-1.4-2.9-3.3-3-5.8h6.6
		c0.1,1,0.4,1.7,1,2.3c0.6,0.6,1.3,0.8,2.3,0.8c0.8,0,1.4-0.2,1.9-0.6s0.7-1,0.7-1.7c0-0.6-0.2-1.2-0.6-1.6s-0.9-0.8-1.6-1.1
		c-0.6-0.3-1.5-0.6-2.6-1c-1.6-0.6-2.9-1.1-3.9-1.6s-1.9-1.3-2.6-2.3s-1.1-2.3-1.1-4c0-1.5,0.4-2.8,1.2-3.9c0.8-1.1,1.8-2,3.2-2.5
		c1.4-0.6,2.9-0.9,4.7-0.9c2.8,0,5.1,0.7,6.8,2c1.7,1.3,2.6,3.2,2.8,5.5h-6.7c-0.1-0.8-0.4-1.5-0.9-2s-1.2-0.7-2-0.7
		c-0.7,0-1.3,0.2-1.7,0.6c-0.4,0.4-0.7,0.9-0.7,1.7c0,0.6,0.2,1.1,0.6,1.5s0.9,0.8,1.5,1c0.6,0.3,1.5,0.6,2.6,1c1.6,0.6,3,1.1,4,1.6
		s1.9,1.3,2.7,2.4c0.7,1,1.1,2.4,1.1,4C1148.9,1673.4,1148.6,1674.7,1147.9,1675.8z"/>
	<path class="st3" d="M1163.9,1659.9c1.1,0.7,1.9,1.6,2.4,2.8v-3.6h6.1v20.1h-6.1v-3.6c-0.5,1.2-1.3,2.1-2.4,2.8c-1.1,0.7-2.4,1-4,1
		c-1.7,0-3.1-0.4-4.4-1.2c-1.3-0.8-2.3-2-3.1-3.6c-0.8-1.6-1.1-3.4-1.1-5.5s0.4-3.9,1.1-5.5s1.8-2.7,3.1-3.6
		c1.3-0.8,2.8-1.2,4.4-1.2C1161.5,1658.9,1162.8,1659.2,1163.9,1659.9z M1158.8,1665.6c-0.8,0.9-1.2,2.1-1.2,3.6s0.4,2.7,1.2,3.6
		c0.8,0.9,1.9,1.3,3.2,1.3c1.3,0,2.4-0.4,3.2-1.3c0.8-0.9,1.2-2.1,1.2-3.6s-0.4-2.7-1.2-3.6s-1.9-1.3-3.2-1.3
		C1160.6,1664.3,1159.6,1664.7,1158.8,1665.6z"/>
	<path class="st3" d="M1177.2,1651.2c0.7-0.6,1.6-0.9,2.7-0.9s2,0.3,2.7,0.9s1,1.4,1,2.3s-0.3,1.7-1,2.3s-1.6,0.9-2.7,0.9
		s-2-0.3-2.7-0.9s-1-1.4-1-2.3S1176.5,1651.8,1177.2,1651.2z M1182.9,1659.1v20.1h-6.2v-20.1H1182.9z"/>
	<path class="st3" d="M1217,1679.2h-6.2l-10.3-15.6v15.6h-6.2v-25.5h6.2l10.3,15.8v-15.8h6.2V1679.2z"/>
	<path class="st3" d="M1241.2,1659.1v20.1h-6.2v-3.6c-0.6,1.2-1.4,2.1-2.6,2.8c-1.1,0.7-2.5,1-4,1c-2.3,0-4.1-0.8-5.5-2.3
		s-2-3.6-2-6.3v-11.7h6.1v10.9c0,1.4,0.4,2.4,1.1,3.2c0.7,0.8,1.7,1.1,2.9,1.1c1.2,0,2.2-0.4,3-1.2s1.1-1.9,1.1-3.4V1659
		L1241.2,1659.1L1241.2,1659.1z"/>
	<path class="st3" d="M1254.6,1660c1.2-0.7,2.5-1.1,3.9-1.1v6.6h-1.8c-1.6,0-2.9,0.3-3.8,1s-1.3,1.9-1.3,3.5v9.1h-6.2V1659h6.2v3.8
		C1252.4,1661.7,1253.3,1660.7,1254.6,1660z"/>
	<path class="st3" d="M1274.5,1660.8c1.5,1.3,2.5,3,2.9,5h-5.8c-0.2-0.8-0.5-1.5-1.1-1.9c-0.6-0.5-1.3-0.7-2.2-0.7
		c-0.7,0-1.2,0.1-1.6,0.4s-0.5,0.7-0.5,1.3c0,0.6,0.3,1.1,1,1.4s1.7,0.6,3.1,0.9c1.5,0.4,2.8,0.7,3.8,1.1s1.8,1,2.6,1.8
		c0.7,0.8,1.1,2,1.1,3.4c0,1.2-0.3,2.2-0.9,3.1s-1.5,1.6-2.7,2.1s-2.6,0.8-4.2,0.8c-2.7,0-4.9-0.6-6.5-1.8s-2.6-2.9-3-5.1h5.9
		c0.1,0.9,0.5,1.5,1.1,2s1.5,0.7,2.5,0.7c0.7,0,1.2-0.2,1.6-0.5s0.5-0.8,0.5-1.3c0-0.7-0.3-1.2-1-1.5s-1.7-0.6-3.2-1
		c-1.5-0.3-2.7-0.6-3.7-1s-1.8-0.9-2.5-1.7c-0.7-0.8-1-1.9-1-3.3c0-1.8,0.7-3.3,2.1-4.4s3.3-1.7,5.8-1.7
		C1270.9,1658.9,1273,1659.5,1274.5,1660.8z"/>
	<path class="st3" d="M1281.5,1651.2c0.7-0.6,1.6-0.9,2.7-0.9s2,0.3,2.7,0.9s1,1.4,1,2.3s-0.3,1.7-1,2.3s-1.6,0.9-2.7,0.9
		s-2-0.3-2.7-0.9s-1-1.4-1-2.3S1280.8,1651.8,1281.5,1651.2z M1287.2,1659.1v20.1h-6.2v-20.1H1287.2z"/>
	<path class="st3" d="M1309.7,1661.2c1.4,1.5,2,3.6,2,6.3v11.7h-6.2v-10.9c0-1.3-0.4-2.4-1.1-3.1s-1.7-1.1-2.8-1.1
		c-1.2,0-2.2,0.4-3,1.2s-1.1,1.9-1.1,3.4v10.7h-6.2v-20.1h6.2v3.7c0.6-1.2,1.4-2.1,2.6-2.8c1.1-0.7,2.5-1,4-1
		C1306.5,1658.9,1308.4,1659.7,1309.7,1661.2z"/>
	<path class="st3" d="M1327.4,1659.9c1.1,0.7,1.9,1.6,2.4,2.8v-3.6h6.1v20c0,1.9-0.4,3.6-1.1,5.1s-1.8,2.7-3.3,3.6s-3.3,1.3-5.5,1.3
		c-3,0-5.4-0.7-7.3-2.1c-1.8-1.4-2.9-3.4-3.3-5.8h6.1c0.2,0.8,0.6,1.5,1.3,1.9c0.7,0.5,1.6,0.7,2.7,0.7c1.3,0,2.3-0.4,3.1-1.1
		c0.8-0.7,1.2-1.9,1.2-3.5v-3.5c-0.5,1.2-1.3,2.1-2.4,2.8c-1.1,0.7-2.4,1-4,1c-1.7,0-3.1-0.4-4.4-1.2c-1.3-0.8-2.3-2-3.1-3.6
		c-0.8-1.6-1.1-3.4-1.1-5.5s0.4-3.9,1.1-5.5c0.8-1.5,1.8-2.7,3.1-3.6c1.3-0.8,2.8-1.2,4.4-1.2
		C1325,1658.9,1326.3,1659.2,1327.4,1659.9z M1322.2,1665.6c-0.8,0.9-1.2,2.1-1.2,3.6s0.4,2.7,1.2,3.6c0.8,0.9,1.9,1.3,3.2,1.3
		c1.3,0,2.4-0.4,3.2-1.3c0.8-0.9,1.2-2.1,1.2-3.6s-0.4-2.7-1.2-3.6c-0.8-0.9-1.9-1.3-3.2-1.3
		C1324.1,1664.3,1323,1664.7,1322.2,1665.6z"/>
	<path class="st3" d="M1202.6,1697v25.5h-6.2v-10.6h-9.6v10.6h-6.2V1697h6.2v9.9h9.6v-9.9H1202.6z"/>
	<path class="st3" d="M1221.6,1703.3c1.6,0.8,2.8,2,3.7,3.6c0.9,1.6,1.3,3.4,1.3,5.5s-0.5,3.9-1.3,5.5c-0.9,1.6-2.1,2.8-3.7,3.6
		c-1.6,0.8-3.4,1.2-5.3,1.2s-3.8-0.4-5.4-1.2c-1.6-0.8-2.8-2-3.7-3.6c-0.9-1.6-1.3-3.4-1.3-5.5s0.4-3.9,1.3-5.5s2.1-2.8,3.7-3.6
		c1.6-0.8,3.4-1.2,5.4-1.2S1220,1702.5,1221.6,1703.3z M1213.3,1708.7c-0.8,0.9-1.2,2.1-1.2,3.7s0.4,2.8,1.2,3.7
		c0.8,0.8,1.8,1.3,3,1.3s2.2-0.4,3-1.3c0.8-0.8,1.2-2.1,1.2-3.7s-0.4-2.8-1.2-3.7c-0.8-0.9-1.8-1.3-3-1.3
		S1214.1,1707.8,1213.3,1708.7z"/>
	<path class="st3" d="M1261.7,1704.4c1.4,1.5,2.1,3.6,2.1,6.4v11.7h-6.1v-10.9c0-1.3-0.3-2.3-1-3s-1.6-1.1-2.8-1.1
		c-1.2,0-2.2,0.4-2.9,1.1c-0.7,0.8-1.1,1.8-1.1,3.2v10.7h-6.2v-10.9c0-1.3-0.3-2.3-1-3s-1.6-1.1-2.8-1.1c-1.2,0-2.2,0.4-2.9,1.1
		c-0.7,0.7-1.1,1.8-1.1,3.2v10.7h-6.2v-20.1h6.2v3.4c0.5-1.1,1.3-2,2.4-2.7s2.4-1,3.8-1c1.5,0,2.9,0.4,4.1,1.1s2.1,1.7,2.7,3
		c0.7-1.2,1.6-2.2,2.9-3c1.2-0.7,2.5-1.1,4-1.1C1258.4,1702.1,1260.3,1702.9,1261.7,1704.4z"/>
	<path class="st3" d="M1286.9,1713.5H1273c0.1,1.5,0.5,2.6,1.2,3.3c0.7,0.7,1.6,1,2.7,1c0.9,0,1.7-0.2,2.3-0.7c0.6-0.5,1-1,1.2-1.8
		h6.5c-0.3,1.4-0.8,2.7-1.7,3.8s-2,2-3.4,2.6s-2.9,1-4.6,1c-2,0-3.7-0.4-5.2-1.2c-1.5-0.8-2.7-2-3.6-3.6s-1.3-3.4-1.3-5.5
		s0.4-3.9,1.3-5.5s2-2.7,3.6-3.6s3.3-1.2,5.3-1.2s3.7,0.4,5.3,1.2c1.5,0.8,2.7,2,3.5,3.4c0.8,1.5,1.2,3.2,1.2,5.1
		C1287,1712.4,1287,1712.9,1286.9,1713.5z M1279.7,1707.9c-0.7-0.7-1.6-1-2.7-1s-2.1,0.3-2.8,1s-1.2,1.7-1.3,3h7.8
		C1280.8,1709.6,1280.5,1708.6,1279.7,1707.9z"/>
</g>
<g>
	<path class="st3" d="M1224.3,1274.6h-4.3l-7.2-10.8v10.8h-4.3v-17.7h4.3l7.2,11v-11h4.3V1274.6z"/>
	<path class="st3" d="M1235.3,1261.2c0.8,0.5,1.3,1.1,1.7,2v-2.5h4.3v14h-4.3v-2.5c-0.4,0.8-0.9,1.5-1.7,2c-0.8,0.5-1.7,0.7-2.8,0.7
		c-1.2,0-2.2-0.3-3.1-0.9s-1.6-1.4-2.2-2.5c-0.5-1.1-0.8-2.4-0.8-3.8c0-1.5,0.3-2.7,0.8-3.8c0.5-1.1,1.2-1.9,2.2-2.5
		s1.9-0.9,3.1-0.9C1233.6,1260.5,1234.5,1260.7,1235.3,1261.2z M1231.7,1265.1c-0.6,0.6-0.8,1.4-0.8,2.5s0.3,1.9,0.8,2.5
		c0.6,0.6,1.3,0.9,2.2,0.9c0.9,0,1.6-0.3,2.2-0.9s0.9-1.4,0.9-2.5s-0.3-1.9-0.9-2.5s-1.3-0.9-2.2-0.9S1232.3,1264.5,1231.7,1265.1z"
		/>
	<path class="st3" d="M1252.3,1261.2c0.8,0.5,1.3,1.1,1.7,2v-7.1h4.3v18.5h-4.3v-2.5c-0.4,0.8-0.9,1.5-1.7,2
		c-0.8,0.5-1.7,0.7-2.8,0.7c-1.2,0-2.2-0.3-3.1-0.9s-1.6-1.4-2.2-2.5c-0.5-1.1-0.8-2.4-0.8-3.8c0-1.5,0.3-2.7,0.8-3.8
		c0.5-1.1,1.2-1.9,2.2-2.5s1.9-0.9,3.1-0.9C1250.6,1260.5,1251.5,1260.7,1252.3,1261.2z M1248.7,1265.1c-0.6,0.6-0.8,1.4-0.8,2.5
		s0.3,1.9,0.8,2.5c0.6,0.6,1.3,0.9,2.2,0.9c0.9,0,1.6-0.3,2.2-0.9s0.9-1.4,0.9-2.5s-0.3-1.9-0.9-2.5s-1.3-0.9-2.2-0.9
		S1249.2,1264.5,1248.7,1265.1z"/>
	<path class="st3" d="M1269.2,1261.2c0.8,0.5,1.3,1.1,1.7,2v-2.5h4.3v14h-4.3v-2.5c-0.4,0.8-0.9,1.5-1.7,2c-0.8,0.5-1.7,0.7-2.8,0.7
		c-1.2,0-2.2-0.3-3.1-0.9s-1.6-1.4-2.2-2.5c-0.5-1.1-0.8-2.4-0.8-3.8c0-1.5,0.3-2.7,0.8-3.8c0.5-1.1,1.2-1.9,2.2-2.5
		s1.9-0.9,3.1-0.9C1267.5,1260.5,1268.4,1260.7,1269.2,1261.2z M1265.6,1265.1c-0.6,0.6-0.8,1.4-0.8,2.5s0.3,1.9,0.8,2.5
		c0.6,0.6,1.3,0.9,2.2,0.9c0.9,0,1.6-0.3,2.2-0.9s0.9-1.4,0.9-2.5s-0.3-1.9-0.9-2.5s-1.3-0.9-2.2-0.9S1266.2,1264.5,1265.6,1265.1z"
		/>
	<path class="st3" d="M1286.6,1274.6l-4.2-5.9v5.9h-4.3v-18.5h4.3v10.2l4.2-5.6h5l-5.6,7l5.8,7L1286.6,1274.6L1286.6,1274.6z"/>
	<path class="st3" d="M1301.7,1274.6l-4.2-5.9v5.9h-4.3v-18.5h4.3v10.2l4.2-5.6h5l-5.6,7l5.8,7L1301.7,1274.6L1301.7,1274.6z"/>
	<path class="st3" d="M1316.5,1261.2c0.8,0.5,1.3,1.1,1.7,2v-2.5h4.3v14h-4.3v-2.5c-0.4,0.8-0.9,1.5-1.7,2c-0.8,0.5-1.7,0.7-2.8,0.7
		c-1.2,0-2.2-0.3-3.1-0.9s-1.6-1.4-2.2-2.5c-0.5-1.1-0.8-2.4-0.8-3.8c0-1.5,0.3-2.7,0.8-3.8c0.5-1.1,1.2-1.9,2.2-2.5
		s1.9-0.9,3.1-0.9C1314.8,1260.5,1315.7,1260.7,1316.5,1261.2z M1312.9,1265.1c-0.6,0.6-0.8,1.4-0.8,2.5s0.3,1.9,0.8,2.5
		c0.6,0.6,1.3,0.9,2.2,0.9c0.9,0,1.6-0.3,2.2-0.9s0.9-1.4,0.9-2.5s-0.3-1.9-0.9-2.5s-1.3-0.9-2.2-0.9
		C1314.2,1264.2,1313.4,1264.5,1312.9,1265.1z"/>
	<path class="st3" d="M1331.8,1270.4l3-9.8h4.5l-5,14h-5.3l-5-14h4.5L1331.8,1270.4z"/>
	<path class="st3" d="M1355,1260.7v14h-4.3v-2.5c-0.4,0.8-1,1.5-1.8,2s-1.7,0.7-2.8,0.7c-1.6,0-2.9-0.5-3.8-1.6s-1.4-2.5-1.4-4.4
		v-8.1h4.3v7.6c0,1,0.2,1.7,0.7,2.2s1.2,0.8,2,0.8c0.9,0,1.5-0.3,2-0.8s0.8-1.3,0.8-2.3v-7.4h4.3V1260.7z"/>
	<path class="st3" d="M1373.9,1256.9v12.1c0,1.8-0.5,3.3-1.5,4.3s-2.4,1.5-4.2,1.5c-1.9,0-3.5-0.5-4.6-1.6s-1.7-2.7-1.7-4.7h4.2
		c0,1.6,0.6,2.5,1.9,2.5c1.1,0,1.6-0.6,1.6-1.9V1257h4.3V1256.9z"/>
	<path class="st3" d="M1389.4,1262.1c0.9,1.1,1.4,2.5,1.4,4.4v8.1h-4.3v-7.6c0-0.9-0.2-1.7-0.7-2.2s-1.1-0.8-2-0.8s-1.6,0.3-2.1,0.8
		s-0.8,1.3-0.8,2.3v7.4h-4.3v-14h4.3v2.5c0.4-0.8,1-1.5,1.8-2s1.7-0.7,2.8-0.7C1387.2,1260.5,1388.4,1261,1389.4,1262.1z"/>
</g>
<g>
	<path class="st3" d="M1150.4,878.5c1.5,1.2,2.4,2.8,2.9,4.8h-4.5c-0.3-0.8-0.8-1.5-1.5-1.9c-0.7-0.5-1.5-0.7-2.5-0.7
		c-1.3,0-2.3,0.5-3,1.4c-0.8,0.9-1.2,2.1-1.2,3.7s0.4,2.8,1.2,3.7s1.8,1.4,3,1.4c1,0,1.8-0.2,2.5-0.7s1.2-1.1,1.5-1.9h4.5
		c-0.4,2-1.4,3.6-2.9,4.8s-3.3,1.8-5.6,1.8c-1.7,0-3.2-0.4-4.5-1.1c-1.3-0.8-2.3-1.8-3-3.2s-1.1-2.9-1.1-4.7s0.4-3.3,1.1-4.7
		s1.7-2.4,3-3.2s2.8-1.1,4.5-1.1C1147,876.8,1148.9,877.3,1150.4,878.5z"/>
	<path class="st3" d="M1168.3,882.1c0.9,1.1,1.4,2.5,1.4,4.4v8.1h-4.3V887c0-0.9-0.2-1.7-0.7-2.2s-1.1-0.8-2-0.8s-1.6,0.3-2.1,0.8
		s-0.8,1.3-0.8,2.3v7.4h-4.3V876h4.3v7.1c0.4-0.8,1-1.5,1.8-2s1.7-0.7,2.8-0.7C1166.1,880.5,1167.4,881,1168.3,882.1z"/>
	<path class="st3" d="M1172.8,875.1c0.5-0.4,1.1-0.6,1.8-0.6s1.4,0.2,1.8,0.6s0.7,1,0.7,1.6s-0.2,1.2-0.7,1.6
		c-0.5,0.4-1.1,0.6-1.8,0.6s-1.4-0.2-1.8-0.6c-0.5-0.4-0.7-1-0.7-1.6C1172.1,876.1,1172.4,875.5,1172.8,875.1z M1176.8,880.7v14
		h-4.3v-14H1176.8z"/>
	<path class="st3" d="M1187.7,890.9v3.7h-1.9c-1.6,0-2.9-0.4-3.8-1.2s-1.4-2.1-1.4-4v-5.1h-1.9v-3.6h1.9v-3.4h4.3v3.4h2.8v3.6h-2.8
		v5.2c0,0.6,0.1,0.9,0.3,1.2c0.2,0.2,0.6,0.3,1.1,0.3h1.4V890.9z"/>
	<path class="st3" d="M1196.4,881.3c0.8-0.5,1.8-0.8,2.7-0.8v4.6h-1.2c-1.1,0-2,0.2-2.6,0.7s-0.9,1.3-0.9,2.5v6.3h-4.3v-14h4.3v2.6
		C1194.9,882.4,1195.6,881.8,1196.4,881.3z"/>
	<path class="st3" d="M1209,881.2c0.8,0.5,1.3,1.1,1.7,2v-2.5h4.3v14h-4.3v-2.5c-0.4,0.8-0.9,1.5-1.7,2c-0.8,0.5-1.7,0.7-2.8,0.7
		c-1.2,0-2.2-0.3-3.1-0.9s-1.6-1.4-2.2-2.5c-0.5-1.1-0.8-2.4-0.8-3.8c0-1.5,0.3-2.7,0.8-3.8s1.2-1.9,2.2-2.5s1.9-0.9,3.1-0.9
		C1207.3,880.5,1208.2,880.7,1209,881.2z M1205.4,885.1c-0.6,0.6-0.8,1.4-0.8,2.5s0.3,1.9,0.8,2.5c0.6,0.6,1.3,0.9,2.2,0.9
		c0.9,0,1.6-0.3,2.2-0.9c0.6-0.6,0.9-1.4,0.9-2.5s-0.3-1.9-0.9-2.5s-1.3-0.9-2.2-0.9C1206.7,884.2,1206,884.5,1205.4,885.1z"/>
	<path class="st3" d="M1233.8,876.9V889c0,1.8-0.5,3.3-1.5,4.3s-2.4,1.5-4.2,1.5c-1.9,0-3.5-0.5-4.6-1.6s-1.7-2.7-1.7-4.7h4.2
		c0,1.6,0.6,2.5,1.9,2.5c1.1,0,1.6-0.6,1.6-1.9V877L1233.8,876.9L1233.8,876.9z"/>
	<path class="st3" d="M1249.3,882.1c0.9,1.1,1.4,2.5,1.4,4.4v8.1h-4.3V887c0-0.9-0.2-1.7-0.7-2.2s-1.1-0.8-2-0.8s-1.6,0.3-2.1,0.8
		s-0.8,1.3-0.8,2.3v7.4h-4.3v-14h4.3v2.5c0.4-0.8,1-1.5,1.8-2s1.7-0.7,2.8-0.7C1247.1,880.5,1248.3,881,1249.3,882.1z"/>
</g>
<g>
	<path class="st3" d="M1353.6,769.4h-6.6l-1.1,3.2h-4.5l6.5-17.5h4.9l6.5,17.5h-4.5L1353.6,769.4z M1352.5,766.1l-2.2-6.5l-2.2,6.5
		H1352.5z"/>
	<path class="st3" d="M1369.3,772.6l-4.2-5.9v5.9h-4.3v-18.5h4.3v10.2l4.2-5.6h5l-5.6,7l5.8,7h-5.2V772.6z"/>
	<path class="st3" d="M1384.1,759.2c0.8,0.5,1.3,1.1,1.7,2v-2.5h4.3v14h-4.3v-2.5c-0.4,0.8-0.9,1.5-1.7,2c-0.8,0.5-1.7,0.7-2.8,0.7
		c-1.2,0-2.2-0.3-3.1-0.9s-1.6-1.4-2.2-2.5c-0.5-1.1-0.8-2.4-0.8-3.8c0-1.5,0.3-2.7,0.8-3.8s1.2-1.9,2.2-2.5s1.9-0.9,3.1-0.9
		C1382.4,758.5,1383.3,758.7,1384.1,759.2z M1380.5,763.1c-0.6,0.6-0.8,1.4-0.8,2.5s0.3,1.9,0.8,2.5c0.6,0.6,1.3,0.9,2.2,0.9
		c0.9,0,1.6-0.3,2.2-0.9c0.6-0.6,0.9-1.4,0.9-2.5s-0.3-1.9-0.9-2.5s-1.3-0.9-2.2-0.9C1381.8,762.2,1381,762.5,1380.5,763.1z"/>
	<path class="st3" d="M1400.9,768.9v3.7h-1.9c-1.6,0-2.9-0.4-3.8-1.2s-1.4-2.1-1.4-4v-5.1h-1.9v-3.6h1.9v-3.4h4.3v3.4h2.8v3.6h-2.8
		v5.2c0,0.6,0.1,0.9,0.3,1.2c0.2,0.2,0.6,0.3,1.1,0.3h1.4V768.9z"/>
	<path class="st3" d="M1415.9,760.1c0.9,1.1,1.4,2.5,1.4,4.4v8.1h-4.3V765c0-0.9-0.2-1.7-0.7-2.2s-1.1-0.8-2-0.8s-1.6,0.3-2.1,0.8
		s-0.8,1.3-0.8,2.3v7.4h-4.3V754h4.3v7.1c0.4-0.8,1-1.5,1.8-2s1.7-0.7,2.8-0.7C1413.7,758.5,1415,759,1415.9,760.1z"/>
	<path class="st3" d="M1433.3,766.4h-9.7c0,1,0.3,1.8,0.8,2.3s1.1,0.7,1.9,0.7c0.6,0,1.2-0.2,1.6-0.5s0.7-0.7,0.8-1.2h4.5
		c-0.2,1-0.6,1.9-1.2,2.6s-1.4,1.4-2.3,1.8s-2,0.7-3.2,0.7c-1.4,0-2.6-0.3-3.6-0.9c-1.1-0.6-1.9-1.4-2.5-2.5s-0.9-2.4-0.9-3.8
		c0-1.5,0.3-2.7,0.9-3.8s1.4-1.9,2.5-2.5s2.3-0.9,3.7-0.9c1.4,0,2.6,0.3,3.6,0.8c1,0.6,1.9,1.4,2.4,2.4c0.6,1,0.9,2.2,0.9,3.5
		C1433.4,765.6,1433.4,766,1433.3,766.4z M1428.3,762.5c-0.5-0.5-1.1-0.7-1.9-0.7s-1.4,0.2-2,0.7s-0.8,1.1-0.9,2h5.5
		C1429.1,763.7,1428.9,763,1428.3,762.5z"/>
	<path class="st3" d="M1443.5,768.9v3.7h-1.9c-1.6,0-2.9-0.4-3.8-1.2s-1.4-2.1-1.4-4v-5.1h-1.9v-3.6h1.9v-3.4h4.3v3.4h2.8v3.6h-2.8
		v5.2c0,0.6,0.1,0.9,0.3,1.2c0.2,0.2,0.6,0.3,1.1,0.3h1.4V768.9z"/>
	<path class="st3" d="M1458.6,760.1c0.9,1.1,1.4,2.5,1.4,4.4v8.1h-4.3V765c0-0.9-0.2-1.7-0.7-2.2s-1.1-0.8-2-0.8s-1.6,0.3-2.1,0.8
		s-0.8,1.3-0.8,2.3v7.4h-4.3V754h4.3v7.1c0.4-0.8,1-1.5,1.8-2s1.7-0.7,2.8-0.7C1456.4,758.5,1457.7,759,1458.6,760.1z"/>
	<path class="st3" d="M1470.9,759.2c0.8,0.5,1.3,1.1,1.7,2v-2.5h4.3v14h-4.3v-2.5c-0.4,0.8-0.9,1.5-1.7,2c-0.8,0.5-1.7,0.7-2.8,0.7
		c-1.2,0-2.2-0.3-3.1-0.9s-1.6-1.4-2.2-2.5c-0.5-1.1-0.8-2.4-0.8-3.8c0-1.5,0.3-2.7,0.8-3.8s1.2-1.9,2.2-2.5s1.9-0.9,3.1-0.9
		C1469.2,758.5,1470.1,758.7,1470.9,759.2z M1467.3,763.1c-0.6,0.6-0.8,1.4-0.8,2.5s0.3,1.9,0.8,2.5c0.6,0.6,1.3,0.9,2.2,0.9
		c0.9,0,1.6-0.3,2.2-0.9c0.6-0.6,0.9-1.4,0.9-2.5s-0.3-1.9-0.9-2.5s-1.3-0.9-2.2-0.9C1468.6,762.2,1467.9,762.5,1467.3,763.1z"/>
	<path class="st3" d="M1486.1,759.3c0.8-0.5,1.8-0.8,2.7-0.8v4.6h-1.2c-1.1,0-2,0.2-2.6,0.7s-0.9,1.3-0.9,2.5v6.3h-4.3v-14h4.3v2.6
		C1484.6,760.4,1485.3,759.8,1486.1,759.3z"/>
	<path class="st3" d="M1498.7,759.2c0.8,0.5,1.3,1.1,1.7,2v-2.5h4.3v14h-4.3v-2.5c-0.4,0.8-0.9,1.5-1.7,2c-0.8,0.5-1.7,0.7-2.8,0.7
		c-1.2,0-2.2-0.3-3.1-0.9s-1.6-1.4-2.2-2.5c-0.5-1.1-0.8-2.4-0.8-3.8c0-1.5,0.3-2.7,0.8-3.8s1.2-1.9,2.2-2.5s1.9-0.9,3.1-0.9
		C1497,758.5,1497.9,758.7,1498.7,759.2z M1495.1,763.1c-0.6,0.6-0.8,1.4-0.8,2.5s0.3,1.9,0.8,2.5c0.6,0.6,1.3,0.9,2.2,0.9
		c0.9,0,1.6-0.3,2.2-0.9c0.6-0.6,0.9-1.4,0.9-2.5s-0.3-1.9-0.9-2.5s-1.3-0.9-2.2-0.9C1496.4,762.2,1495.7,762.5,1495.1,763.1z"/>
</g>
<g>
	<path class="st0" d="M1049.6,1640.7l0.9,0.9l-2.5,2.5l8,8l-1.2,1.2l-8-8l-2.5,2.5l-0.9-0.9L1049.6,1640.7z"/>
	<path class="st0" d="M1058,1636.9c0.8-0.2,1.6-0.2,2.5,0c0.8,0.2,1.6,0.7,2.4,1.5s1.2,1.5,1.5,2.4c0.2,0.8,0.2,1.7,0,2.5
		s-0.7,1.6-1.4,2.2c-0.7,0.7-1.4,1.1-2.2,1.4c-0.8,0.2-1.7,0.2-2.5,0s-1.6-0.7-2.4-1.4c-0.7-0.7-1.2-1.5-1.5-2.4
		c-0.2-0.8-0.2-1.7,0-2.5s0.7-1.6,1.4-2.2S1057.2,1637.2,1058,1636.9z M1055.9,1640.7c-0.2,0.5-0.2,1.1,0,1.7s0.5,1.2,1.1,1.8
		c0.6,0.6,1.1,0.9,1.7,1.1s1.2,0.2,1.7,0s1-0.5,1.4-0.9s0.7-0.9,0.9-1.4c0.2-0.5,0.2-1.1,0-1.7s-0.5-1.2-1.1-1.7
		c-0.6-0.6-1.2-0.9-1.8-1.1c-0.6-0.2-1.2-0.2-1.7,0s-1,0.5-1.4,0.9C1056.4,1639.7,1056.1,1640.2,1055.9,1640.7z"/>
	<path class="st0" d="M1078,1630.2l-1.2,1.2l-11.7-2.4l7.1,7.1l-1.2,1.2l-9-9l1.2-1.2l11.8,2.4l-7.1-7.1l1.2-1.2L1078,1630.2z"/>
	<path class="st0" d="M1084.1,1621.9c0.2,0.6,0.1,1.2,0,1.8c-0.2,0.6-0.6,1.3-1.2,1.9s-1.2,1-1.9,1.3c-0.7,0.2-1.3,0.3-2,0.2
		c-0.7-0.1-1.2-0.4-1.8-0.8l1.2-1.2c0.3,0.2,0.6,0.4,1,0.5s0.8,0.1,1.2,0c0.4-0.1,0.8-0.4,1.2-0.8c0.5-0.5,0.8-1,0.8-1.6
		s-0.2-1-0.6-1.5c-0.4-0.4-0.8-0.6-1.2-0.6c-0.4,0-0.8,0-1.2,0.2c-0.4,0.1-0.9,0.4-1.6,0.7c-0.8,0.4-1.4,0.7-1.9,0.8
		c-0.5,0.2-1.1,0.2-1.6,0.1c-0.6-0.1-1.1-0.4-1.7-0.9c-0.5-0.5-0.8-1-0.9-1.6s-0.1-1.2,0.1-1.8s0.6-1.2,1.2-1.8
		c0.9-0.9,1.8-1.4,2.7-1.5c0.9-0.1,1.8,0.2,2.5,0.7l-1.2,1.2c-0.4-0.3-0.9-0.4-1.5-0.4s-1.1,0.3-1.6,0.8s-0.7,1-0.8,1.5
		c0,0.5,0.2,1,0.6,1.4c0.3,0.3,0.7,0.5,1.1,0.6c0.4,0,0.8,0,1.2-0.2s0.9-0.4,1.5-0.7c0.8-0.4,1.4-0.7,1.9-0.9
		c0.5-0.2,1.1-0.2,1.7-0.1s1.2,0.4,1.7,1C1083.6,1620.8,1083.9,1621.3,1084.1,1621.9z"/>
	<path class="st0" d="M1091.3,1614.6c0.2,0.6,0.1,1.2,0,1.8c-0.2,0.6-0.6,1.3-1.2,1.9s-1.2,1-1.9,1.3c-0.7,0.2-1.3,0.3-2,0.2
		c-0.7-0.1-1.2-0.4-1.8-0.8l1.2-1.2c0.3,0.2,0.6,0.4,1,0.5s0.8,0.1,1.2,0c0.4-0.1,0.8-0.4,1.2-0.8c0.5-0.5,0.8-1,0.8-1.6
		s-0.2-1-0.6-1.5c-0.4-0.4-0.8-0.6-1.2-0.6c-0.4,0-0.8,0-1.2,0.2c-0.4,0.1-0.9,0.4-1.6,0.7c-0.8,0.4-1.4,0.7-1.9,0.8
		c-0.5,0.2-1,0.2-1.6,0.1s-1.1-0.4-1.7-0.9c-0.5-0.5-0.8-1-0.9-1.6s-0.1-1.2,0.1-1.8c0.2-0.6,0.6-1.2,1.2-1.8
		c0.9-0.9,1.8-1.4,2.7-1.5c0.9-0.1,1.8,0.2,2.5,0.7l-1.2,1.2c-0.4-0.3-0.9-0.4-1.5-0.4s-1.1,0.3-1.6,0.8s-0.7,1-0.8,1.5
		c0,0.5,0.2,1,0.6,1.4c0.3,0.3,0.7,0.5,1.1,0.6c0.4,0,0.8,0,1.2-0.2s0.9-0.4,1.5-0.7c0.8-0.4,1.4-0.7,1.9-0.9
		c0.5-0.2,1.1-0.2,1.7-0.1s1.2,0.4,1.7,1C1090.8,1613.6,1091.1,1614.1,1091.3,1614.6z"/>
	<path class="st0" d="M1092.7,1599c1.3-0.2,2.5,0.1,3.7,0.7l-1.2,1.2c-0.8-0.4-1.7-0.5-2.5-0.3c-0.9,0.2-1.7,0.6-2.4,1.3
		c-0.6,0.6-1,1.3-1.1,2c-0.2,0.7-0.1,1.5,0.1,2.3c0.3,0.8,0.8,1.6,1.5,2.3c0.7,0.7,1.5,1.2,2.2,1.4c0.8,0.3,1.6,0.3,2.3,0.1
		c0.7-0.2,1.4-0.6,2-1.1c0.7-0.7,1.2-1.5,1.3-2.4s0.1-1.7-0.3-2.5l1.2-1.2c0.7,1.2,0.9,2.4,0.7,3.7c-0.2,1.3-0.8,2.4-1.9,3.5
		c-0.8,0.8-1.8,1.4-2.8,1.6c-1,0.3-2.1,0.2-3.1-0.1c-1.1-0.3-2-0.9-2.9-1.8s-1.5-1.9-1.8-2.9c-0.3-1.1-0.4-2.1-0.1-3.1
		s0.8-2,1.6-2.8C1090.3,1599.8,1091.5,1599.2,1092.7,1599z"/>
	<path class="st0" d="M1097.1,1595l3.1,3.1l3.4-3.4l0.9,0.9l-3.4,3.4l3.1,3.1l3.8-3.8l0.9,0.9l-5,5l-9-9l5-5l0.9,0.9L1097.1,1595z"
		/>
</g>
<g>
	<path class="st0" d="M1125.8,815.1h1.3v3.6h11.4v1.6h-11.4v3.6h-1.3V815.1z"/>
	<path class="st0" d="M1129.1,806.5c0.4-0.8,1-1.3,1.8-1.8c0.8-0.4,1.7-0.6,2.7-0.6s1.9,0.2,2.7,0.6c0.8,0.4,1.3,1,1.8,1.8
		c0.4,0.8,0.6,1.6,0.6,2.5s-0.2,1.8-0.6,2.5c-0.4,0.8-1,1.3-1.8,1.8c-0.8,0.4-1.7,0.6-2.7,0.6s-1.9-0.2-2.7-0.6
		c-0.8-0.4-1.4-1-1.8-1.8s-0.6-1.6-0.6-2.5S1128.7,807.2,1129.1,806.5z M1130.3,810.7c0.3,0.5,0.7,0.9,1.2,1.2s1.2,0.5,2,0.5
		s1.5-0.2,2-0.5s1-0.7,1.2-1.2c0.3-0.5,0.4-1,0.4-1.6s-0.1-1.1-0.4-1.6s-0.7-0.9-1.2-1.2s-1.2-0.5-2-0.5s-1.5,0.2-2,0.5
		s-1,0.7-1.2,1.2c-0.3,0.5-0.4,1-0.4,1.6S1130.1,810.2,1130.3,810.7z"/>
	<path class="st0" d="M1138.5,787.6v1.6l-10,6.6h10v1.6h-12.7v-1.6l10-6.6h-10v-1.6H1138.5z"/>
	<path class="st0" d="M1136.9,777.4c0.5,0.3,0.9,0.7,1.3,1.3c0.3,0.6,0.5,1.3,0.5,2.2c0,0.8-0.2,1.6-0.5,2.2
		c-0.3,0.7-0.7,1.2-1.3,1.6s-1.1,0.6-1.8,0.7v-1.7c0.4,0,0.7-0.2,1.1-0.4c0.3-0.2,0.6-0.5,0.8-0.9c0.2-0.4,0.3-0.9,0.3-1.4
		c0-0.7-0.2-1.3-0.6-1.7s-0.9-0.6-1.5-0.6c-0.5,0-0.9,0.1-1.3,0.4s-0.6,0.6-0.8,1c-0.2,0.4-0.4,0.9-0.6,1.6
		c-0.3,0.8-0.5,1.4-0.7,1.9s-0.6,0.9-1.1,1.2s-1.1,0.5-1.9,0.5c-0.7,0-1.2-0.2-1.7-0.5s-0.9-0.8-1.2-1.4c-0.3-0.6-0.4-1.3-0.4-2.1
		c0-1.2,0.3-2.2,0.9-3c0.6-0.7,1.4-1.2,2.3-1.3v1.8c-0.5,0.1-0.9,0.4-1.3,0.8c-0.4,0.4-0.6,1-0.6,1.7s0.2,1.2,0.5,1.6
		c0.3,0.4,0.8,0.6,1.4,0.6c0.5,0,0.9-0.1,1.2-0.4c0.3-0.3,0.5-0.6,0.7-1s0.4-0.9,0.6-1.6c0.3-0.8,0.5-1.5,0.8-2s0.6-0.9,1.1-1.3
		c0.5-0.3,1.1-0.5,1.9-0.5C1135.8,777,1136.4,777.1,1136.9,777.4z"/>
	<path class="st0" d="M1136.9,767.2c0.5,0.3,0.9,0.7,1.3,1.3c0.3,0.6,0.5,1.3,0.5,2.2c0,0.8-0.2,1.6-0.5,2.2
		c-0.3,0.7-0.7,1.2-1.3,1.6s-1.1,0.6-1.8,0.7v-1.7c0.4,0,0.7-0.2,1.1-0.4c0.3-0.2,0.6-0.5,0.8-0.9c0.2-0.4,0.3-0.9,0.3-1.4
		c0-0.7-0.2-1.3-0.6-1.7s-0.9-0.6-1.5-0.6c-0.5,0-0.9,0.1-1.3,0.4s-0.6,0.6-0.8,1c-0.2,0.4-0.4,0.9-0.6,1.6
		c-0.3,0.8-0.5,1.4-0.7,1.9s-0.6,0.9-1.1,1.2s-1.1,0.5-1.9,0.5c-0.7,0-1.2-0.2-1.7-0.5s-0.9-0.8-1.2-1.4c-0.3-0.6-0.4-1.3-0.4-2.1
		c0-1.2,0.3-2.2,0.9-3c0.6-0.7,1.4-1.2,2.3-1.3v1.8c-0.5,0.1-0.9,0.4-1.3,0.8c-0.4,0.4-0.6,1-0.6,1.7s0.2,1.2,0.5,1.6
		c0.3,0.4,0.8,0.6,1.4,0.6c0.5,0,0.9-0.1,1.2-0.4c0.3-0.3,0.5-0.6,0.7-1s0.4-0.9,0.6-1.6c0.3-0.8,0.5-1.5,0.8-2s0.6-0.9,1.1-1.3
		c0.5-0.3,1.1-0.5,1.9-0.5C1135.8,766.8,1136.4,766.9,1136.9,767.2z"/>
	<path class="st0" d="M1126.8,755.1c0.8-1,1.8-1.7,3.1-2.1v1.7c-0.8,0.3-1.5,0.8-2,1.6c-0.5,0.7-0.7,1.6-0.7,2.6
		c0,0.8,0.2,1.6,0.6,2.2c0.4,0.7,1,1.2,1.7,1.5s1.6,0.6,2.6,0.6s1.9-0.2,2.6-0.6s1.3-0.9,1.7-1.5c0.4-0.7,0.6-1.4,0.6-2.2
		c0-1-0.2-1.9-0.7-2.6c-0.5-0.7-1.2-1.2-2-1.6V753c1.3,0.4,2.4,1.1,3.1,2.1c0.8,1,1.1,2.3,1.1,3.8c0,1.2-0.3,2.2-0.8,3.2
		s-1.3,1.6-2.3,2.1s-2.1,0.8-3.3,0.8c-1.3,0-2.4-0.3-3.4-0.8s-1.7-1.2-2.3-2.1c-0.5-0.9-0.8-2-0.8-3.2
		C1125.7,757.4,1126.1,756.1,1126.8,755.1z"/>
	<path class="st0" d="M1127.1,749.2h4.3v-4.8h1.3v4.8h4.4v-5.4h1.3v7h-12.7v-7h1.3L1127.1,749.2L1127.1,749.2z"/>
</g>
<g>
	<path class="st0" d="M631.8,341.9c0.7-1,1.7-1.7,3-2v1.7c-0.8,0.3-1.4,0.8-1.9,1.5s-0.7,1.5-0.7,2.5c0,0.9,0.2,1.6,0.6,2.3
		s1,1.2,1.7,1.6s1.6,0.6,2.6,0.6s1.9-0.2,2.7-0.6s1.3-0.9,1.7-1.6s0.6-1.5,0.6-2.4c0-0.8-0.2-1.5-0.5-2.1s-0.8-1.2-1.5-1.6
		c-0.6-0.4-1.4-0.7-2.3-0.7v5h-1.2v-6.4h1.5c1,0.1,1.9,0.4,2.7,0.9s1.5,1.2,1.9,2.1c0.5,0.9,0.7,1.9,0.7,3c0,1.2-0.3,2.3-0.8,3.2
		s-1.3,1.7-2.3,2.2s-2.1,0.8-3.4,0.8s-2.4-0.3-3.4-0.8s-1.7-1.3-2.3-2.2c-0.6-0.9-0.8-2-0.8-3.2C630.7,344.1,631,342.9,631.8,341.9z
		"/>
	<path class="st0" d="M634.2,330.9c0.5-0.7,1.1-1.1,1.9-1.4h-2.5v-1.6h9.9v1.6H641c0.8,0.3,1.4,0.7,1.9,1.4c0.5,0.7,0.7,1.5,0.7,2.4
		s-0.2,1.7-0.6,2.3c-0.4,0.7-1,1.2-1.8,1.6s-1.7,0.6-2.7,0.6s-1.9-0.2-2.7-0.6s-1.4-0.9-1.8-1.6s-0.6-1.5-0.6-2.3
		C633.5,332.3,633.7,331.5,634.2,330.9z M635.9,335.3c0.6,0.6,1.5,0.9,2.7,0.9s2-0.3,2.7-0.9c0.6-0.6,1-1.4,1-2.4
		c0-0.6-0.2-1.2-0.5-1.7s-0.7-0.9-1.3-1.2c-0.5-0.3-1.2-0.4-1.9-0.4s-1.4,0.1-1.9,0.4s-1,0.7-1.3,1.2s-0.4,1.1-0.4,1.7
		C634.9,333.8,635.3,334.6,635.9,335.3z"/>
	<path class="st0" d="M642.1,320.5h1.4v1.2c0,1-0.2,1.8-0.7,2.3s-1.3,0.7-2.4,0.7H635v1.5h-1.4v-1.5h-2.5V323h2.5v-2.6h1.4v2.6h5.4
		c0.6,0,1.1-0.1,1.3-0.4c0.2-0.2,0.4-0.6,0.4-1.2L642.1,320.5L642.1,320.5z"/>
	<path class="st0" d="M638.9,309.5v7.9c1.1,0,2-0.4,2.5-1c0.6-0.6,0.8-1.3,0.8-2.2c0-0.8-0.2-1.5-0.6-2c-0.4-0.5-0.9-0.9-1.6-1v-1.7
		c0.7,0.1,1.3,0.4,1.8,0.8s1,1,1.3,1.6c0.3,0.7,0.5,1.4,0.5,2.2c0,0.9-0.2,1.8-0.6,2.5c-0.4,0.7-1,1.3-1.8,1.7
		c-0.8,0.4-1.7,0.6-2.7,0.6s-1.9-0.2-2.7-0.6s-1.4-1-1.8-1.7s-0.6-1.6-0.6-2.5c0-1,0.2-1.8,0.6-2.5c0.4-0.7,1-1.3,1.6-1.6
		s1.4-0.6,2.3-0.6C638.3,309.4,638.6,309.4,638.9,309.5z M636.3,311.4c-0.5,0.3-0.9,0.7-1.1,1.1s-0.4,1-0.4,1.6
		c0,0.9,0.3,1.7,0.8,2.3c0.6,0.6,1.4,0.9,2.5,1v-6.3C637.4,311,636.8,311.2,636.3,311.4z"/>
</g>
<g>
	<path class="st4" d="M529.8,126.1h-7.7l-12.9-19.5v19.5h-7.7V94.3h7.7l12.9,19.7V94.3h7.7V126.1z"/>
	<path class="st4" d="M556.7,121.8c-0.9,1.4-2.1,2.5-3.8,3.4s-3.7,1.3-6.1,1.3c-3.6,0-6.5-0.9-8.8-2.6s-3.6-4.2-3.8-7.3h8.2
		c0.1,1.2,0.5,2.1,1.3,2.8c0.7,0.7,1.7,1,2.8,1c1,0,1.8-0.3,2.3-0.8s0.9-1.3,0.9-2.2c0-0.8-0.3-1.5-0.8-2s-1.2-1-2-1.3
		s-1.9-0.8-3.2-1.2c-2-0.7-3.7-1.4-4.9-2c-1.3-0.6-2.4-1.6-3.3-2.9c-0.9-1.3-1.4-2.9-1.4-5c0-1.9,0.5-3.5,1.4-4.9
		c1-1.4,2.3-2.4,4-3.2c1.7-0.7,3.6-1.1,5.8-1.1c3.5,0,6.4,0.8,8.4,2.5c2.1,1.7,3.3,4,3.5,6.9H549c-0.2-1-0.5-1.9-1.1-2.5
		s-1.4-0.9-2.5-0.9c-0.9,0-1.6,0.2-2.2,0.7c-0.6,0.5-0.8,1.2-0.8,2.1c0,0.8,0.2,1.4,0.7,1.9s1.1,1,1.9,1.3c0.7,0.3,1.8,0.8,3.2,1.3
		c2,0.7,3.7,1.4,5,2c1.3,0.7,2.4,1.7,3.3,2.9c0.9,1.3,1.4,3,1.4,5C558,118.9,557.5,120.4,556.7,121.8z"/>
	<path class="st4" d="M583.8,121.8c-0.9,1.4-2.1,2.5-3.8,3.4s-3.7,1.3-6.1,1.3c-3.6,0-6.5-0.9-8.8-2.6s-3.6-4.2-3.8-7.3h8.2
		c0.1,1.2,0.5,2.1,1.3,2.8c0.7,0.7,1.7,1,2.8,1c1,0,1.8-0.3,2.3-0.8s0.9-1.3,0.9-2.2c0-0.8-0.3-1.5-0.8-2s-1.2-1-2-1.3
		s-1.9-0.8-3.2-1.2c-2-0.7-3.7-1.4-4.9-2c-1.3-0.6-2.4-1.6-3.3-2.9c-0.9-1.3-1.4-2.9-1.4-5c0-1.9,0.5-3.5,1.4-4.9
		c1-1.4,2.3-2.4,4-3.2c1.7-0.7,3.6-1.1,5.8-1.1c3.5,0,6.4,0.8,8.4,2.5c2.1,1.7,3.3,4,3.5,6.9H576c-0.2-1-0.5-1.9-1.1-2.5
		s-1.4-0.9-2.5-0.9c-0.9,0-1.6,0.2-2.2,0.7c-0.6,0.5-0.8,1.2-0.8,2.1c0,0.8,0.2,1.4,0.7,1.9s1.1,1,1.9,1.3c0.7,0.3,1.8,0.8,3.2,1.3
		c2,0.7,3.7,1.4,5,2c1.3,0.7,2.4,1.7,3.3,2.9c0.9,1.3,1.4,3,1.4,5C585.1,118.9,584.7,120.4,583.8,121.8z"/>
	<path class="st4" d="M623,97.2c2.7,2.1,4.4,5,5.2,8.6H620c-0.6-1.5-1.5-2.6-2.8-3.5c-1.2-0.8-2.7-1.3-4.4-1.3
		c-2.3,0-4.1,0.8-5.4,2.5c-1.4,1.7-2.1,3.9-2.1,6.6c0,2.8,0.7,5,2.1,6.6c1.4,1.6,3.2,2.5,5.4,2.5c1.7,0,3.2-0.4,4.4-1.3
		c1.2-0.8,2.2-2,2.8-3.4h8.1c-0.8,3.6-2.5,6.5-5.2,8.6s-6,3.2-10.1,3.2c-3.1,0-5.8-0.7-8.1-2s-4.1-3.3-5.4-5.7
		c-1.3-2.5-1.9-5.3-1.9-8.4s0.6-6,1.9-8.4c1.3-2.5,3.1-4.4,5.4-5.7c2.3-1.4,5.1-2,8.1-2C616.9,94,620.3,95.1,623,97.2z"/>
	<path class="st4" d="M650.9,102.3c2,1,3.5,2.5,4.6,4.5s1.7,4.2,1.7,6.8c0,2.6-0.6,4.9-1.7,6.8s-2.7,3.4-4.6,4.5
		c-2,1-4.2,1.6-6.7,1.6s-4.7-0.5-6.7-1.6c-2-1-3.5-2.5-4.7-4.5s-1.7-4.2-1.7-6.8c0-2.6,0.6-4.9,1.7-6.8c1.1-1.9,2.7-3.4,4.7-4.5
		s4.2-1.6,6.7-1.6C646.7,100.7,648.9,101.2,650.9,102.3z M640.5,109c-1,1.1-1.5,2.6-1.5,4.6s0.5,3.5,1.5,4.6c1,1,2.2,1.6,3.7,1.6
		s2.7-0.5,3.7-1.6c1-1,1.5-2.6,1.5-4.6s-0.5-3.5-1.5-4.6s-2.2-1.6-3.7-1.6S641.5,107.9,640.5,109z"/>
	<path class="st4" d="M668.9,92.8v33.3h-7.7V92.8H668.9z"/>
	<path class="st4" d="M681.9,92.8v33.3h-7.7V92.8H681.9z"/>
	<path class="st4" d="M710.8,115h-17.4c0.1,1.9,0.6,3.2,1.4,4.1c0.9,0.8,2,1.2,3.3,1.2c1.1,0,2.1-0.3,2.8-0.9s1.2-1.3,1.5-2.2h8.1
		c-0.3,1.8-1.1,3.4-2.2,4.7c-1.1,1.4-2.5,2.5-4.2,3.3s-3.6,1.2-5.7,1.2c-2.5,0-4.6-0.5-6.5-1.6c-1.9-1-3.4-2.5-4.5-4.5
		s-1.6-4.2-1.6-6.8c0-2.6,0.5-4.9,1.6-6.9c1.1-1.9,2.6-3.4,4.5-4.5s4.1-1.6,6.6-1.6s4.7,0.5,6.6,1.5c1.9,1,3.4,2.5,4.4,4.3
		s1.6,4,1.6,6.4C711,113.5,711,114.2,710.8,115z M701.9,108c-0.9-0.8-2-1.2-3.4-1.2s-2.6,0.4-3.5,1.3c-0.9,0.8-1.5,2.1-1.6,3.7h9.8
		C703.3,110.1,702.8,108.9,701.9,108z"/>
	<path class="st4" d="M729.5,102c1.4,0.9,2.4,2.1,3.1,3.6V101h7.6v25c0,2.3-0.5,4.4-1.4,6.3c-0.9,1.9-2.3,3.4-4.1,4.5
		c-1.9,1.1-4.2,1.7-6.9,1.7c-3.8,0-6.8-0.9-9.1-2.7s-3.6-4.2-4.1-7.3h7.6c0.2,1,0.8,1.8,1.6,2.4c0.9,0.6,2,0.9,3.4,0.9
		c1.6,0,2.9-0.5,3.8-1.4c1-0.9,1.5-2.4,1.5-4.4v-4.4c-0.7,1.5-1.7,2.7-3.1,3.6c-1.4,0.9-3,1.3-5,1.3c-2.1,0-3.9-0.5-5.6-1.6
		c-1.6-1-2.9-2.5-3.9-4.5c-0.9-2-1.4-4.2-1.4-6.8c0-2.6,0.5-4.9,1.4-6.9c0.9-1.9,2.2-3.4,3.9-4.5c1.6-1,3.5-1.6,5.6-1.6
		C726.5,100.7,728.2,101.2,729.5,102z M723.1,109.1c-1,1.1-1.5,2.6-1.5,4.5s0.5,3.4,1.5,4.5s2.3,1.6,4,1.6c1.6,0,2.9-0.6,4-1.7
		c1-1.1,1.6-2.6,1.6-4.5s-0.5-3.4-1.6-4.5c-1-1.1-2.4-1.6-4-1.6C725.4,107.5,724.1,108,723.1,109.1z"/>
	<path class="st4" d="M769.2,115h-17.4c0.1,1.9,0.6,3.2,1.4,4.1c0.9,0.8,2,1.2,3.3,1.2c1.1,0,2.1-0.3,2.8-0.9s1.2-1.3,1.5-2.2h8.1
		c-0.3,1.8-1.1,3.4-2.2,4.7c-1.1,1.4-2.5,2.5-4.2,3.3s-3.6,1.2-5.7,1.2c-2.5,0-4.6-0.5-6.5-1.6c-1.9-1-3.4-2.5-4.5-4.5
		s-1.6-4.2-1.6-6.8c0-2.6,0.5-4.9,1.6-6.9c1.1-1.9,2.6-3.4,4.5-4.5s4.1-1.6,6.6-1.6s4.7,0.5,6.6,1.5c1.9,1,3.4,2.5,4.4,4.3
		s1.6,4,1.6,6.4C769.4,113.5,769.3,114.2,769.2,115z M760.3,108c-0.9-0.8-2-1.2-3.4-1.2s-2.6,0.4-3.5,1.3c-0.9,0.8-1.5,2.1-1.6,3.7
		h9.8C761.7,110.1,761.2,108.9,760.3,108z"/>
	<path class="st4" d="M800.8,102.3c2,1,3.5,2.5,4.6,4.5s1.7,4.2,1.7,6.8c0,2.6-0.6,4.9-1.7,6.8s-2.7,3.4-4.6,4.5
		c-2,1-4.2,1.6-6.7,1.6s-4.7-0.5-6.7-1.6c-2-1-3.5-2.5-4.7-4.5s-1.7-4.2-1.7-6.8c0-2.6,0.6-4.9,1.7-6.8c1.1-1.9,2.7-3.4,4.7-4.5
		c2-1,4.2-1.6,6.7-1.6C796.6,100.7,798.9,101.2,800.8,102.3z M790.4,109c-1,1.1-1.5,2.6-1.5,4.6s0.5,3.5,1.5,4.6
		c1,1,2.2,1.6,3.7,1.6s2.7-0.5,3.7-1.6s1.5-2.6,1.5-4.6s-0.5-3.5-1.5-4.6s-2.2-1.6-3.7-1.6C792.7,107.4,791.4,107.9,790.4,109z"/>
	<path class="st4" d="M823.5,97.6c-1.3,0-2.2,0.3-2.7,0.8c-0.6,0.5-0.9,1.4-0.9,2.6h4.5v6.5h-4.5v18.6h-7.7v-18.6h-3V101h3v-0.3
		c0-3.1,0.9-5.5,2.7-7.2s4.4-2.5,7.9-2.5c0.7,0,1.3,0,1.6,0v6.6H823.5z"/>
	<path class="st4" d="M533.5,154.5v6.7h10.8v5.8h-10.8v7.1h12.1v6.2h-19.8v-31.8h19.8v6.1h-12.1V154.5z"/>
	<path class="st4" d="M572.7,157.6c1.7,1.9,2.5,4.6,2.5,7.9v14.6h-7.7v-13.7c0-1.7-0.4-3-1.3-3.9c-0.9-0.9-2.1-1.4-3.5-1.4
		c-1.6,0-2.8,0.5-3.7,1.5s-1.4,2.4-1.4,4.2v13.3h-7.7V155h7.7v4.6c0.7-1.5,1.8-2.7,3.2-3.6c1.4-0.9,3.1-1.3,5-1.3
		C568.7,154.8,571,155.7,572.7,157.6z"/>
	<path class="st4" d="M594.8,156c1.4,0.9,2.4,2.1,3.1,3.6V155h7.6v25c0,2.3-0.5,4.4-1.4,6.3c-0.9,1.9-2.3,3.4-4.1,4.5
		c-1.9,1.1-4.2,1.7-6.9,1.7c-3.8,0-6.8-0.9-9.1-2.7s-3.6-4.2-4.1-7.3h7.6c0.2,1,0.8,1.8,1.6,2.4c0.9,0.6,2,0.9,3.4,0.9
		c1.6,0,2.9-0.5,3.8-1.4c1-0.9,1.5-2.4,1.5-4.4v-4.4c-0.7,1.5-1.7,2.7-3.1,3.6c-1.4,0.9-3,1.3-5,1.3c-2.1,0-3.9-0.5-5.6-1.6
		c-1.6-1-2.9-2.5-3.9-4.5c-0.9-2-1.4-4.2-1.4-6.8s0.5-4.9,1.4-6.9c0.9-1.9,2.2-3.4,3.9-4.5c1.6-1,3.5-1.6,5.6-1.6
		C591.8,154.7,593.5,155.2,594.8,156z M588.4,163.1c-1,1.1-1.5,2.6-1.5,4.5s0.5,3.4,1.5,4.5s2.3,1.6,4,1.6c1.6,0,2.9-0.6,4-1.7
		c1-1.1,1.6-2.6,1.6-4.5s-0.5-3.4-1.6-4.5c-1-1.1-2.4-1.6-4-1.6C590.7,161.5,589.4,162,588.4,163.1z"/>
	<path class="st4" d="M611.4,145.1c0.8-0.8,1.9-1.1,3.3-1.1c1.4,0,2.5,0.4,3.3,1.1c0.8,0.8,1.3,1.7,1.3,2.9c0,1.1-0.4,2.1-1.3,2.9
		c-0.8,0.8-2,1.1-3.3,1.1c-1.4,0-2.5-0.4-3.3-1.1c-0.8-0.8-1.3-1.7-1.3-2.9C610.1,146.8,610.6,145.8,611.4,145.1z M618.5,155v25.1
		h-7.7V155H618.5z"/>
	<path class="st4" d="M646.6,157.6c1.7,1.9,2.5,4.6,2.5,7.9v14.6h-7.7v-13.7c0-1.7-0.4-3-1.3-3.9c-0.9-0.9-2.1-1.4-3.5-1.4
		c-1.6,0-2.8,0.5-3.7,1.5s-1.4,2.4-1.4,4.2v13.3h-7.7V155h7.7v4.6c0.7-1.5,1.8-2.7,3.2-3.6c1.4-0.9,3.1-1.3,5-1.3
		C642.7,154.8,645,155.7,646.6,157.6z"/>
	<path class="st4" d="M677.9,169h-17.4c0.1,1.9,0.6,3.2,1.4,4.1c0.9,0.8,2,1.2,3.3,1.2c1.1,0,2.1-0.3,2.8-0.9
		c0.7-0.6,1.2-1.3,1.5-2.2h8.1c-0.3,1.8-1.1,3.4-2.2,4.7c-1.1,1.4-2.5,2.5-4.2,3.3s-3.6,1.2-5.7,1.2c-2.5,0-4.6-0.5-6.5-1.6
		c-1.9-1-3.4-2.5-4.5-4.5s-1.6-4.2-1.6-6.8s0.5-4.9,1.6-6.9c1.1-1.9,2.6-3.4,4.5-4.5s4.1-1.6,6.6-1.6s4.7,0.5,6.6,1.5
		c1.9,1,3.4,2.5,4.4,4.3s1.6,4,1.6,6.4C678.1,167.5,678.1,168.2,677.9,169z M669,162c-0.9-0.8-2-1.2-3.4-1.2s-2.6,0.4-3.5,1.3
		c-0.9,0.8-1.5,2.1-1.6,3.7h9.8C670.4,164.1,669.9,162.9,669,162z"/>
	<path class="st4" d="M705.8,169h-17.4c0.1,1.9,0.6,3.2,1.4,4.1c0.9,0.8,2,1.2,3.3,1.2c1.1,0,2.1-0.3,2.8-0.9
		c0.7-0.6,1.2-1.3,1.5-2.2h8.1c-0.3,1.8-1.1,3.4-2.2,4.7c-1.1,1.4-2.5,2.5-4.2,3.3s-3.6,1.2-5.7,1.2c-2.5,0-4.6-0.5-6.5-1.6
		c-1.9-1-3.4-2.5-4.5-4.5s-1.6-4.2-1.6-6.8s0.5-4.9,1.6-6.9c1.1-1.9,2.6-3.4,4.5-4.5s4.1-1.6,6.6-1.6s4.7,0.5,6.6,1.5
		c1.9,1,3.4,2.5,4.4,4.3s1.6,4,1.6,6.4C706,167.5,705.9,168.2,705.8,169z M696.9,162c-0.9-0.8-2-1.2-3.4-1.2s-2.6,0.4-3.5,1.3
		c-0.9,0.8-1.5,2.1-1.6,3.7h9.8C698.2,164.1,697.8,162.9,696.9,162z"/>
	<path class="st4" d="M721.4,156.1c1.5-0.9,3.2-1.3,4.9-1.3v8.2h-2.2c-2,0-3.6,0.4-4.7,1.3s-1.7,2.3-1.7,4.4v11.4H710V155h7.7v4.7
		C718.6,158.2,719.9,157,721.4,156.1z"/>
	<path class="st4" d="M730.1,145.1c0.8-0.8,1.9-1.1,3.3-1.1c1.4,0,2.5,0.4,3.3,1.1c0.8,0.8,1.3,1.7,1.3,2.9c0,1.1-0.4,2.1-1.3,2.9
		c-0.8,0.8-2,1.1-3.3,1.1c-1.4,0-2.5-0.4-3.3-1.1c-0.8-0.8-1.3-1.7-1.3-2.9S729.3,145.8,730.1,145.1z M737.3,155v25.1h-7.7V155
		H737.3z"/>
	<path class="st4" d="M765.4,157.6c1.7,1.9,2.5,4.6,2.5,7.9v14.6h-7.7v-13.7c0-1.7-0.4-3-1.3-3.9c-0.9-0.9-2.1-1.4-3.5-1.4
		c-1.6,0-2.8,0.5-3.7,1.5s-1.4,2.4-1.4,4.2v13.3h-7.7V155h7.7v4.6c0.7-1.5,1.8-2.7,3.2-3.6c1.4-0.9,3.1-1.3,5-1.3
		C761.4,154.8,763.7,155.7,765.4,157.6z"/>
	<path class="st4" d="M787.5,156c1.4,0.9,2.4,2.1,3.1,3.6V155h7.7v25c0,2.3-0.5,4.4-1.4,6.3c-0.9,1.9-2.3,3.4-4.1,4.5
		c-1.9,1.1-4.2,1.7-6.9,1.7c-3.8,0-6.8-0.9-9.1-2.7s-3.6-4.2-4.1-7.3h7.6c0.2,1,0.8,1.8,1.6,2.4c0.9,0.6,2,0.9,3.4,0.9
		c1.6,0,2.9-0.5,3.8-1.4s1.5-2.4,1.5-4.4v-4.4c-0.7,1.5-1.7,2.7-3.1,3.6s-3,1.3-4.9,1.3c-2.1,0-3.9-0.5-5.6-1.6
		c-1.6-1-2.9-2.5-3.9-4.5s-1.4-4.2-1.4-6.8s0.5-4.9,1.4-6.9c0.9-1.9,2.2-3.4,3.9-4.5c1.6-1,3.5-1.6,5.6-1.6
		C784.4,154.7,786.1,155.2,787.5,156z M781,163.1c-1,1.1-1.5,2.6-1.5,4.5s0.5,3.4,1.5,4.5s2.3,1.6,4,1.6c1.6,0,2.9-0.6,4-1.7
		c1-1.1,1.6-2.6,1.6-4.5s-0.5-3.4-1.6-4.5c-1-1.1-2.4-1.6-4-1.6C783.3,161.5,782,162,781,163.1z"/>
</g>
<g>
	<path class="st5" d="M541.2,1253c0,11.1-6,20.7-14.9,25.9c-0.1,0.1-0.2,0.1-0.3,0.2c-6.1,3.6-10.9,9.3-13.2,16.1
		c-0.1,0.2-0.2,0.5-0.2,0.7c-0.3,0.5-0.8,0.8-1.4,0.8s-1.1-0.3-1.4-0.8c-0.1-0.2-0.1-0.5-0.2-0.7c-2.3-6.8-7.1-12.5-13.2-16.1
		c-0.1-0.1-0.2-0.1-0.3-0.2c-8.9-5.2-14.9-14.9-14.9-25.9c0-16.6,13.4-30,30-30C527.7,1223,541.2,1236.4,541.2,1253z"/>
	<path class="st0" d="M511.1,1262.5c-5.2,0-9.5-4.3-9.5-9.5s4.3-9.5,9.5-9.5c5.2,0,9.5,4.3,9.5,9.5S516.4,1262.5,511.1,1262.5z"/>
</g>
<g>
	<path class="st5" d="M2018.2,334c0,11.1-6,20.7-14.9,25.9c-0.1,0.1-0.2,0.1-0.3,0.2c-6.1,3.6-10.9,9.3-13.2,16.1
		c-0.1,0.2-0.2,0.5-0.2,0.7c-0.3,0.5-0.8,0.8-1.4,0.8s-1.1-0.3-1.4-0.8c-0.1-0.2-0.1-0.5-0.2-0.7c-2.3-6.8-7.1-12.5-13.2-16.1
		c-0.1-0.1-0.2-0.1-0.3-0.2c-8.9-5.2-14.9-14.9-14.9-25.9c0-16.6,13.4-30,30-30S2018.2,317.4,2018.2,334z"/>
	<path class="st0" d="M1988.1,343.5c-5.2,0-9.5-4.3-9.5-9.5s4.3-9.5,9.5-9.5s9.5,4.3,9.5,9.5S1993.4,343.5,1988.1,343.5z"/>
</g>
<g>
	<path class="st5" d="M735.2,1625.2c0,9-4.9,16.9-12.1,21.1c-0.1,0-0.2,0.1-0.2,0.1c-5,2.9-8.9,7.6-10.8,13.1
		c-0.1,0.2-0.1,0.4-0.2,0.6c-0.2,0.4-0.7,0.6-1.1,0.6s-0.9-0.3-1.1-0.6c-0.1-0.2-0.1-0.4-0.2-0.6c-1.9-5.6-5.8-10.2-10.8-13.1
		c-0.1,0-0.2-0.1-0.2-0.1c-7.2-4.2-12.1-12.1-12.1-21.1c0-13.5,10.9-24.4,24.4-24.4S735.2,1611.7,735.2,1625.2z"/>
	<path class="st0" d="M710.7,1632.9c-4.3,0-7.7-3.5-7.7-7.7c0-4.3,3.5-7.7,7.7-7.7c4.3,0,7.7,3.5,7.7,7.7S715,1632.9,710.7,1632.9z"
		/>
</g>
<g>
	<path class="st5" d="M689.2,30c0,11.1-6,20.7-14.9,25.9c-0.1,0.1-0.2,0.1-0.3,0.2c-6.1,3.6-10.9,9.3-13.2,16.1
		c-0.1,0.2-0.2,0.5-0.2,0.7c-0.3,0.5-0.8,0.8-1.4,0.8c-0.6,0-1.1-0.3-1.4-0.8c-0.1-0.2-0.1-0.5-0.2-0.7c-2.3-6.8-7.1-12.5-13.2-16.1
		c-0.1-0.1-0.2-0.1-0.3-0.2c-8.9-5.2-14.9-14.9-14.9-25.9c0-16.6,13.4-30,30-30C675.7,0,689.2,13.4,689.2,30z"/>
	<path class="st0" d="M659.1,39.5c-5.2,0-9.5-4.3-9.5-9.5s4.3-9.5,9.5-9.5s9.5,4.3,9.5,9.5S664.4,39.5,659.1,39.5z"/>
</g>
<g>
	<path class="st5" d="M1281.2,1597c0,11.1-6,20.7-14.9,25.9c-0.1,0.1-0.2,0.1-0.3,0.2c-6.1,3.6-10.9,9.3-13.2,16.1
		c-0.1,0.2-0.2,0.5-0.2,0.7c-0.3,0.5-0.8,0.8-1.4,0.8s-1.1-0.3-1.4-0.8c-0.1-0.2-0.1-0.5-0.2-0.7c-2.3-6.8-7.1-12.5-13.2-16.1
		c-0.1-0.1-0.2-0.1-0.3-0.2c-8.9-5.2-14.9-14.9-14.9-25.9c0-16.6,13.4-30,30-30S1281.2,1580.4,1281.2,1597z"/>
	<g>
		<path class="st0" d="M1264.9,1578.4v31.8h-7.7v-13.3h-12.1v13.3h-7.7v-31.8h7.7v12.3h12.1v-12.3H1264.9z"/>
	</g>
</g>
<g class="st6">
	<path class="st0" d="M358.7,1684.3l-25,14.5c-0.3,0.2-0.3,0.6,0,0.7l25,14.5c0.3,0.2,0.6,0,0.6-0.4v-6.2h9c0.4,0,0.8-0.4,0.8-0.8
		v-14.9c0-0.4-0.4-0.8-0.8-0.8h-9v-6.2C359.3,1684.3,359,1684.1,358.7,1684.3z"/>
</g>
<g class="st6">
	<path class="st0" d="M1286.6,1958.3l27.9,7.5c0.3,0.1,0.6-0.2,0.5-0.5l-7.5-27.9c-0.1-0.3-0.5-0.4-0.7-0.2l-4.4,4.4l-6.4-6.4
		c-0.3-0.3-0.8-0.3-1.1,0l-10.6,10.6c-0.3,0.3-0.3,0.8,0,1.1l6.4,6.4l-4.4,4.4C1286.2,1957.9,1286.3,1958.2,1286.6,1958.3z"/>
</g>
<g class="st6">
	<path class="st0" d="M1737.9,1349.9l25-14.5c0.3-0.2,0.3-0.6,0-0.7l-25-14.5c-0.3-0.2-0.6,0-0.6,0.4v6.2h-9c-0.4,0-0.8,0.4-0.8,0.8
		v14.9c0,0.4,0.4,0.8,0.8,0.8h9v6.2C1737.3,1349.9,1737.6,1350.1,1737.9,1349.9z"/>
</g>
<g class="st6">
	<path class="st0" d="M44.7,1320.3l-25,14.5c-0.3,0.2-0.3,0.6,0,0.7l25,14.5c0.3,0.2,0.6,0,0.6-0.4v-6.2h9c0.4,0,0.8-0.4,0.8-0.8
		v-14.9c0-0.4-0.4-0.8-0.8-0.8h-9v-6.2C45.3,1320.3,45,1320.1,44.7,1320.3z"/>
</g>
<path class="st7" d="M1185.4,933.7l-8.3-14.3c-0.1-0.2-0.3-0.2-0.4,0l-8.3,14.3c-0.1,0.2,0,0.4,0.2,0.4h3.5v5.2
	c0,0.3,0.2,0.5,0.5,0.5h8.5c0.3,0,0.5-0.2,0.5-0.5v-5.2h3.5C1185.4,934.1,1185.5,933.9,1185.4,933.7z"/>
<path class="st7" d="M668.1,216.1l-6.2-10.7c-0.1-0.1-0.2-0.1-0.3,0l-6.2,10.7c-0.1,0.1,0,0.3,0.2,0.3h2.7v3.9
	c0,0.2,0.2,0.3,0.3,0.3h6.4c0.2,0,0.3-0.2,0.3-0.3v-3.9h2.7C668.1,216.3,668.2,216.2,668.1,216.1z"/>
<path class="st7" d="M668.1,344.1l-6.2-10.7c-0.1-0.1-0.2-0.1-0.3,0l-6.2,10.7c-0.1,0.1,0,0.3,0.2,0.3h2.7v3.9
	c0,0.2,0.2,0.3,0.3,0.3h6.4c0.2,0,0.3-0.2,0.3-0.3v-3.9h2.7C668.1,344.3,668.2,344.2,668.1,344.1z"/>
<path class="st7" d="M1590.9,594.5l4.3-16c0-0.2-0.1-0.3-0.3-0.3l-16,4.3c-0.2,0-0.2,0.3-0.1,0.4l2.5,2.5l-3.6,3.6
	c-0.2,0.2-0.2,0.5,0,0.6l6,6c0.2,0.2,0.5,0.2,0.6,0l3.6-3.6l2.5,2.5C1590.7,594.7,1590.9,594.6,1590.9,594.5z"/>
<path class="st7" d="M1084.9,1677.5l4.3-16c0-0.2-0.1-0.3-0.3-0.3l-16,4.3c-0.2,0-0.2,0.3-0.1,0.4l2.5,2.5l-3.6,3.6
	c-0.2,0.2-0.2,0.5,0,0.6l6,6c0.2,0.2,0.5,0.2,0.6,0l3.6-3.6l2.5,2.5C1084.7,1677.7,1084.9,1677.6,1084.9,1677.5z"/>
<path class="st7" d="M639.5,1909.2l8.3,14.3c0.1,0.2,0.3,0.2,0.4,0l8.3-14.3c0.1-0.2,0-0.4-0.2-0.4h-3.5v-5.2c0-0.3-0.2-0.5-0.5-0.5
	h-8.5c-0.3,0-0.5,0.2-0.5,0.5v5.2h-3.5C639.5,1908.9,639.4,1909.1,639.5,1909.2z"/>
</svg>
